  0
SECTION
  2
HEADER
  9
$ACADVER
  1
AC1009
  9
$INSBASE
 10
0.0
 20
0.0
 30
0.0
  9
$EXTMIN
 10
56.545401
 20
69.03215
 30
0.0
  9
$EXTMAX
 10
89.771662
 20
88.827859
 30
0.0
  9
$LIMMIN
 10
0.0
 20
0.0
  9
$LIMMAX
 10
0.0
 20
0.0
  9
$ORTHOMODE
 70
     0
  9
$REGENMODE
 70
     1
  9
$FILLMODE
 70
     1
  9
$QTEXTMODE
 70
     0
  9
$MIRRTEXT
 70
     1
  9
$DRAGMODE
 70
     2
  9
$LTSCALE
 40
1.0
  9
$OSMODE
 70
     0
  9
$ATTMODE
 70
     1
  9
$TEXTSIZE
 40
0.2
  9
$TRACEWID
 40
0.05
  9
$TEXTSTYLE
  7
STANDARD
  9
$CLAYER
  8
0
  9
$CELTYPE
  6
CONTINUOUS
  9
$CECOLOR
 62
   256
  9
$DIMSCALE
 40
1.0
  9
$DIMASZ
 40
0.18
  9
$DIMEXO
 40
0.0625
  9
$DIMDLI
 40
0.38
  9
$DIMRND
 40
0.0
  9
$DIMDLE
 40
0.0
  9
$DIMEXE
 40
0.18
  9
$DIMTP
 40
0.0
  9
$DIMTM
 40
0.0
  9
$DIMTXT
 40
0.18
  9
$DIMCEN
 40
0.09
  9
$DIMTSZ
 40
0.0
  9
$DIMTOL
 70
     0
  9
$DIMLIM
 70
     0
  9
$DIMTIH
 70
     1
  9
$DIMTOH
 70
     1
  9
$DIMSE1
 70
     0
  9
$DIMSE2
 70
     0
  9
$DIMTAD
 70
     0
  9
$DIMZIN
 70
     0
  9
$DIMBLK
  1

  9
$DIMASO
 70
     1
  9
$DIMSHO
 70
     1
  9
$DIMPOST
  1

  9
$DIMAPOST
  1

  9
$DIMALT
 70
     0
  9
$DIMALTD
 70
     2
  9
$DIMALTF
 40
25.4
  9
$DIMLFAC
 40
1.0
  9
$DIMTOFL
 70
     0
  9
$DIMTVP
 40
0.0
  9
$DIMTIX
 70
     0
  9
$DIMSOXD
 70
     0
  9
$DIMSAH
 70
     0
  9
$DIMBLK1
  1

  9
$DIMBLK2
  1

  9
$DIMSTYLE
  2
STANDARD
  9
$DIMCLRD
 70
     0
  9
$DIMCLRE
 70
     0
  9
$DIMCLRT
 70
     0
  9
$DIMTFAC
 40
1.0
  9
$DIMGAP
 40
0.09
  9
$LUNITS
 70
     2
  9
$LUPREC
 70
     4
  9
$AXISMODE
 70
     0
  9
$AXISUNIT
 10
0.0
 20
0.0
  9
$SKETCHINC
 40
0.1
  9
$FILLETRAD
 40
0.0
  9
$AUNITS
 70
     0
  9
$AUPREC
 70
     0
  9
$MENU
  1
acad
  9
$ELEVATION
 40
0.0
  9
$PELEVATION
 40
0.0
  9
$THICKNESS
 40
0.0
  9
$LIMCHECK
 70
     0
  9
$BLIPMODE
 70
     1
  9
$CHAMFERA
 40
0.0
  9
$CHAMFERB
 40
0.0
  9
$SKPOLY
 70
     0
  9
$TDCREATE
 40
0.000000000
  9
$TDUPDATE
 40
0.000000000
  9
$TDINDWG
 40
0.0000000000
  9
$TDUSRTIMER
 40
0.0000000000
  9
$USRTIMER
 70
     1
  9
$ANGBASE
 50
0.0
  9
$ANGDIR
 70
     0
  9
$PDMODE
 70
     0
  9
$PDSIZE
 40
0.0
  9
$PLINEWID
 40
0.0
  9
$COORDS
 70
     0
  9
$SPLFRAME
 70
     0
  9
$SPLINETYPE
 70
     6
  9
$SPLINESEGS
 70
     8
  9
$ATTDIA
 70
     0
  9
$ATTREQ
 70
     1
  9
$HANDLING
 70
     1
  9
$HANDSEED
  5
5E3
  9
$SURFTAB1
 70
     6
  9
$SURFTAB2
 70
     6
  9
$SURFTYPE
 70
     6
  9
$SURFU
 70
     6
  9
$SURFV
 70
     6
  9
$UCSNAME
  2

  9
$UCSORG
 10
0.0
 20
0.0
 30
0.0
  9
$UCSXDIR
 10
1.0
 20
0.0
 30
0.0
  9
$UCSYDIR
 10
0.0
 20
1.0
 30
0.0
  9
$PUCSNAME
  2

  9
$PUCSORG
 10
0.0
 20
0.0
 30
0.0
  9
$PUCSXDIR
 10
1.0
 20
0.0
 30
0.0
  9
$PUCSYDIR
 10
0.0
 20
1.0
 30
0.0
  9
$USERI1
 70
     0
  9
$USERI2
 70
     0
  9
$USERI3
 70
     0
  9
$USERI4
 70
     0
  9
$USERI5
 70
     0
  9
$USERR1
 40
0.0
  9
$USERR2
 40
0.0
  9
$USERR3
 40
0.0
  9
$USERR4
 40
0.0
  9
$USERR5
 40
0.0
  9
$WORLDVIEW
 70
     1
  9
$SHADEDGE
 70
     3
  9
$SHADEDIF
 70
    70
  9
$TILEMODE
 70
     1
  9
$MAXACTVP
 70
    16
  9
$PINSBASE
 10
0.0
 20
0.0
 30
0.0
  9
$PLIMCHECK
 70
     0
  9
$PEXTMIN
 10
1.000000E+20
 20
1.000000E+20
 30
1.000000E+20
  9
$PEXTMAX
 10
-1.000000E+20
 20
-1.000000E+20
 30
-1.000000E+20
  9
$PLIMMIN
 10
0.0
 20
0.0
  9
$PLIMMAX
 10
12.0
 20
9.0
  9
$UNITMODE
 70
     0
  9
$VISRETAIN
 70
     0
  9
$PLINEGEN
 70
     1
  9
$PSLTSCALE
 70
     0
  9
$TREEDEPTH
 70
  3020
  9
$DWGCODEPAGE
  3
dos850
  0
ENDSEC
  0
SECTION
  2
TABLES
  0
TABLE
  2
VPORT
 70
     1
  0
VPORT
  2
*ACTIVE
 70
     0
 10
0.0
 20
0.0
 11
1.0
 21
1.0
 12
6.591288
 22
4.579184
 13
0.0
 23
0.0
 14
1.0
 24
1.0
 15
0.0
 25
0.0
 16
0.0
 26
0.0
 36
1.0
 17
0.0
 27
0.0
 37
0.0
 40
9.158369
 41
0.688564
 42
50.0
 43
0.0
 44
0.0
 50
0.0
 51
0.0
 71
     0
 72
   100
 73
     1
 74
     1
 75
     0
 76
     0
 77
     0
 78
     0
  0
ENDTAB
  0
TABLE
  2
LTYPE
 70
     1
  0
LTYPE
  2
CONTINUOUS
 70
    64
  3
Solid line
 72
    65
 73
     0
 40
0.0
  0
ENDTAB
  0
TABLE
  2
LAYER
 70
     9
  0
LAYER
  2
0
 70
     0
 62
     7
  6
CONTINUOUS
  0
LAYER
  2
TOPLAYER
 70
     0
 62
     1
  6
CONTINUOUS
  0
LAYER
  2
BOTTOMLAYER
 70
     0
 62
     5
  6
CONTINUOUS
  0
LAYER
  2
TOPOVERLAY
 70
     0
 62
     2
  6
CONTINUOUS
  0
LAYER
  2
MULTILAYER
 70
     0
 62
     9
  6
CONTINUOUS
  0
LAYER
  2
TOPPASTE
 70
     0
 62
     8
  6
CONTINUOUS
  0
LAYER
  2
BOTTOMPASTE
 70
     0
 62
    16
  6
CONTINUOUS
  0
LAYER
  2
TOPSOLDER
 70
     0
 62
   216
  6
CONTINUOUS
  0
LAYER
  2
BOTTOMSOLDER
 70
     0
 62
     6
  6
CONTINUOUS
  0
ENDTAB
  0
TABLE
  2
STYLE
 70
     1
  0
STYLE
  2
STANDARD
 70
     0
 40
0.0
 41
1.0
 50
0.0
 71
     0
 42
0.0
  3
txt
  4

  0
ENDTAB
  0
TABLE
  2
VIEW
 70
     0
  0
ENDTAB
  0
TABLE
  2
UCS
 70
     0
  0
ENDTAB
  0
TABLE
  2
APPID
 70
     1
  0
APPID
  2
ACAD
 70
     0
  0
ENDTAB
  0
TABLE
  2
DIMSTYLE
 70
     1
  0
DIMSTYLE
  2
STANDARD
 70
     0
  3

  4

  5

  6

  7

 40
1.0
 41
0.18
 42
0.0625
 43
0.38
 44
0.18
 45
0.0
 46
0.0
 47
0.0
 48
0.0
 71
     0
 72
     0
 73
     1
 74
     1
 75
     0
 76
     0
 77
     0
 78
     0
140
0.18
141
0.09
142
0.0
143
25.4
144
1.0
145
0.0
146
1.0
147
0.09
170
     0
171
     2
172
     0
173
     0
174
     0
175
     0
176
     0
177
     0
178
     0
  0
ENDTAB
  0
ENDSEC
  0
SECTION
  2
BLOCKS
  0
BLOCK
  8
0
  5
26
  2
USR_K_1
 70
     0
 10
0.0
 20
0.0
 30
0.0
  3
USR_K_1
  0
POLYLINE
  8
TOPOVERLAY
  5
27
 66
     1
 10
0.0
 20
0.0
 30
0.0
 40
0.2032
 41
0.2032
 75
     8
  0
VERTEX
  8
TOPOVERLAY
  5
28
 10
-6.852999
 20
3.320004
 30
0.0
  0
VERTEX
  8
TOPOVERLAY
  5
29
 10
-6.849999
 20
-13.480006
 30
0.0
  0
SEQEND
  8
0
  5
2A
  0
POLYLINE
  8
TOPOVERLAY
  5
2B
 66
     1
 10
0.0
 20
0.0
 30
0.0
 70
     1
 40
0.1016
 41
0.1016
 75
     8
  0
VERTEX
  8
TOPOVERLAY
  5
2C
 10
-6.903799
 20
3.320004
 30
0.0
 42
1.0
  0
VERTEX
  8
TOPOVERLAY
  5
2D
 10
-6.802199
 20
3.320004
 30
0.0
 42
1.0
  0
SEQEND
  8
0
  5
2E
  0
POLYLINE
  8
TOPOVERLAY
  5
2F
 66
     1
 10
0.0
 20
0.0
 30
0.0
 70
     1
 40
0.1016
 41
0.1016
 75
     8
  0
VERTEX
  8
TOPOVERLAY
  5
30
 10
-6.900799
 20
-13.480006
 30
0.0
 42
1.0
  0
VERTEX
  8
TOPOVERLAY
  5
31
 10
-6.799199
 20
-13.480006
 30
0.0
 42
1.0
  0
SEQEND
  8
0
  5
32
  0
POLYLINE
  8
TOPOVERLAY
  5
33
 66
     1
 10
0.0
 20
0.0
 30
0.0
 40
0.2032
 41
0.2032
 75
     8
  0
VERTEX
  8
TOPOVERLAY
  5
34
 10
-6.849999
 20
-13.480001
 30
0.0
  0
VERTEX
  8
TOPOVERLAY
  5
35
 10
26.170001
 20
-13.480001
 30
0.0
  0
SEQEND
  8
0
  5
36
  0
POLYLINE
  8
TOPOVERLAY
  5
37
 66
     1
 10
0.0
 20
0.0
 30
0.0
 70
     1
 40
0.1016
 41
0.1016
 75
     8
  0
VERTEX
  8
TOPOVERLAY
  5
38
 10
-6.900799
 20
-13.480001
 30
0.0
 42
1.0
  0
VERTEX
  8
TOPOVERLAY
  5
39
 10
-6.799199
 20
-13.480001
 30
0.0
 42
1.0
  0
SEQEND
  8
0
  5
3A
  0
POLYLINE
  8
TOPOVERLAY
  5
3B
 66
     1
 10
0.0
 20
0.0
 30
0.0
 70
     1
 40
0.1016
 41
0.1016
 75
     8
  0
VERTEX
  8
TOPOVERLAY
  5
3C
 10
26.119201
 20
-13.480001
 30
0.0
 42
1.0
  0
VERTEX
  8
TOPOVERLAY
  5
3D
 10
26.220801
 20
-13.480001
 30
0.0
 42
1.0
  0
SEQEND
  8
0
  5
3E
  0
POLYLINE
  8
TOPOVERLAY
  5
3F
 66
     1
 10
0.0
 20
0.0
 30
0.0
 40
0.2032
 41
0.2032
 75
     8
  0
VERTEX
  8
TOPOVERLAY
  5
40
 10
26.167001
 20
3.238005
 30
0.0
  0
VERTEX
  8
TOPOVERLAY
  5
41
 10
26.170062
 20
-13.480001
 30
0.0
  0
SEQEND
  8
0
  5
42
  0
POLYLINE
  8
TOPOVERLAY
  5
43
 66
     1
 10
0.0
 20
0.0
 30
0.0
 70
     1
 40
0.1016
 41
0.1016
 75
     8
  0
VERTEX
  8
TOPOVERLAY
  5
44
 10
26.116201
 20
3.238005
 30
0.0
 42
1.0
  0
VERTEX
  8
TOPOVERLAY
  5
45
 10
26.217801
 20
3.238005
 30
0.0
 42
1.0
  0
SEQEND
  8
0
  5
46
  0
POLYLINE
  8
TOPOVERLAY
  5
47
 66
     1
 10
0.0
 20
0.0
 30
0.0
 70
     1
 40
0.1016
 41
0.1016
 75
     8
  0
VERTEX
  8
TOPOVERLAY
  5
48
 10
26.119262
 20
-13.480001
 30
0.0
 42
1.0
  0
VERTEX
  8
TOPOVERLAY
  5
49
 10
26.220862
 20
-13.480001
 30
0.0
 42
1.0
  0
SEQEND
  8
0
  5
4A
  0
POLYLINE
  8
TOPOVERLAY
  5
4B
 66
     1
 10
0.0
 20
0.0
 30
0.0
 40
0.2032
 41
0.2032
 75
     8
  0
VERTEX
  8
TOPOVERLAY
  5
4C
 10
-6.849999
 20
3.320001
 30
0.0
  0
VERTEX
  8
TOPOVERLAY
  5
4D
 10
26.170001
 20
3.320001
 30
0.0
  0
SEQEND
  8
0
  5
4E
  0
POLYLINE
  8
TOPOVERLAY
  5
4F
 66
     1
 10
0.0
 20
0.0
 30
0.0
 70
     1
 40
0.1016
 41
0.1016
 75
     8
  0
VERTEX
  8
TOPOVERLAY
  5
50
 10
-6.900799
 20
3.320001
 30
0.0
 42
1.0
  0
VERTEX
  8
TOPOVERLAY
  5
51
 10
-6.799199
 20
3.320001
 30
0.0
 42
1.0
  0
SEQEND
  8
0
  5
52
  0
POLYLINE
  8
TOPOVERLAY
  5
53
 66
     1
 10
0.0
 20
0.0
 30
0.0
 70
     1
 40
0.1016
 41
0.1016
 75
     8
  0
VERTEX
  8
TOPOVERLAY
  5
54
 10
26.119201
 20
3.320001
 30
0.0
 42
1.0
  0
VERTEX
  8
TOPOVERLAY
  5
55
 10
26.220801
 20
3.320001
 30
0.0
 42
1.0
  0
SEQEND
  8
0
  5
56
  0
POLYLINE
  8
TOPOVERLAY
  5
57
 66
     1
 10
0.0
 20
0.0
 30
0.0
 40
0.2032
 41
0.2032
 75
     8
  0
VERTEX
  8
TOPOVERLAY
  5
58
 10
1.275001
 20
-13.398995
 30
0.0
  0
VERTEX
  8
TOPOVERLAY
  5
59
 10
1.275001
 20
3.238005
 30
0.0
  0
SEQEND
  8
0
  5
5A
  0
POLYLINE
  8
TOPOVERLAY
  5
5B
 66
     1
 10
0.0
 20
0.0
 30
0.0
 70
     1
 40
0.1016
 41
0.1016
 75
     8
  0
VERTEX
  8
TOPOVERLAY
  5
5C
 10
1.224201
 20
-13.398995
 30
0.0
 42
1.0
  0
VERTEX
  8
TOPOVERLAY
  5
5D
 10
1.325801
 20
-13.398995
 30
0.0
 42
1.0
  0
SEQEND
  8
0
  5
5E
  0
POLYLINE
  8
TOPOVERLAY
  5
5F
 66
     1
 10
0.0
 20
0.0
 30
0.0
 70
     1
 40
0.1016
 41
0.1016
 75
     8
  0
VERTEX
  8
TOPOVERLAY
  5
60
 10
1.224201
 20
3.238005
 30
0.0
 42
1.0
  0
VERTEX
  8
TOPOVERLAY
  5
61
 10
1.325801
 20
3.238005
 30
0.0
 42
1.0
  0
SEQEND
  8
0
  5
62
  0
POLYLINE
  8
TOPOVERLAY
  5
63
 66
     1
 10
0.0
 20
0.0
 30
0.0
 40
0.2032
 41
0.2032
 75
     8
  0
VERTEX
  8
TOPOVERLAY
  5
64
 10
-1.27
 20
-13.480006
 30
0.0
  0
VERTEX
  8
TOPOVERLAY
  5
65
 10
-1.27
 20
3.320004
 30
0.0
  0
SEQEND
  8
0
  5
66
  0
POLYLINE
  8
TOPOVERLAY
  5
67
 66
     1
 10
0.0
 20
0.0
 30
0.0
 70
     1
 40
0.1016
 41
0.1016
 75
     8
  0
VERTEX
  8
TOPOVERLAY
  5
68
 10
-1.3208
 20
-13.480006
 30
0.0
 42
1.0
  0
VERTEX
  8
TOPOVERLAY
  5
69
 10
-1.2192
 20
-13.480006
 30
0.0
 42
1.0
  0
SEQEND
  8
0
  5
6A
  0
POLYLINE
  8
TOPOVERLAY
  5
6B
 66
     1
 10
0.0
 20
0.0
 30
0.0
 70
     1
 40
0.1016
 41
0.1016
 75
     8
  0
VERTEX
  8
TOPOVERLAY
  5
6C
 10
-1.3208
 20
3.320004
 30
0.0
 42
1.0
  0
VERTEX
  8
TOPOVERLAY
  5
6D
 10
-1.2192
 20
3.320004
 30
0.0
 42
1.0
  0
SEQEND
  8
0
  5
6E
  0
POLYLINE
  8
TOPOVERLAY
  5
6F
 66
     1
 10
0.0
 20
0.0
 30
0.0
 40
0.2032
 41
0.2032
 75
     8
  0
VERTEX
  8
TOPOVERLAY
  5
70
 10
-3.937
 20
-13.480006
 30
0.0
  0
VERTEX
  8
TOPOVERLAY
  5
71
 10
-3.937
 20
3.320004
 30
0.0
  0
SEQEND
  8
0
  5
72
  0
POLYLINE
  8
TOPOVERLAY
  5
73
 66
     1
 10
0.0
 20
0.0
 30
0.0
 70
     1
 40
0.1016
 41
0.1016
 75
     8
  0
VERTEX
  8
TOPOVERLAY
  5
74
 10
-3.9878
 20
-13.480006
 30
0.0
 42
1.0
  0
VERTEX
  8
TOPOVERLAY
  5
75
 10
-3.8862
 20
-13.480006
 30
0.0
 42
1.0
  0
SEQEND
  8
0
  5
76
  0
POLYLINE
  8
TOPOVERLAY
  5
77
 66
     1
 10
0.0
 20
0.0
 30
0.0
 70
     1
 40
0.1016
 41
0.1016
 75
     8
  0
VERTEX
  8
TOPOVERLAY
  5
78
 10
-3.9878
 20
3.320004
 30
0.0
 42
1.0
  0
VERTEX
  8
TOPOVERLAY
  5
79
 10
-3.8862
 20
3.320004
 30
0.0
 42
1.0
  0
SEQEND
  8
0
  5
7A
  0
POLYLINE
  8
TOPOVERLAY
  5
7B
 66
     1
 10
0.0
 20
0.0
 30
0.0
 40
0.2032
 41
0.2032
 75
     8
  0
VERTEX
  8
TOPOVERLAY
  5
7C
 10
-6.720997
 20
-2.730995
 30
0.0
  0
VERTEX
  8
TOPOVERLAY
  5
7D
 10
-3.931999
 20
-2.730995
 30
0.0
  0
SEQEND
  8
0
  5
7E
  0
POLYLINE
  8
TOPOVERLAY
  5
7F
 66
     1
 10
0.0
 20
0.0
 30
0.0
 70
     1
 40
0.1016
 41
0.1016
 75
     8
  0
VERTEX
  8
TOPOVERLAY
  5
80
 10
-6.771797
 20
-2.730995
 30
0.0
 42
1.0
  0
VERTEX
  8
TOPOVERLAY
  5
81
 10
-6.670197
 20
-2.730995
 30
0.0
 42
1.0
  0
SEQEND
  8
0
  5
82
  0
POLYLINE
  8
TOPOVERLAY
  5
83
 66
     1
 10
0.0
 20
0.0
 30
0.0
 70
     1
 40
0.1016
 41
0.1016
 75
     8
  0
VERTEX
  8
TOPOVERLAY
  5
84
 10
-3.982799
 20
-2.730995
 30
0.0
 42
1.0
  0
VERTEX
  8
TOPOVERLAY
  5
85
 10
-3.881199
 20
-2.730995
 30
0.0
 42
1.0
  0
SEQEND
  8
0
  5
86
  0
POLYLINE
  8
TOPOVERLAY
  5
87
 66
     1
 10
0.0
 20
0.0
 30
0.0
 40
0.2032
 41
0.2032
 75
     8
  0
VERTEX
  8
TOPOVERLAY
  5
88
 10
-6.731
 20
-7.492004
 30
0.0
  0
VERTEX
  8
TOPOVERLAY
  5
89
 10
-4.064
 20
-7.492004
 30
0.0
  0
SEQEND
  8
0
  5
8A
  0
POLYLINE
  8
TOPOVERLAY
  5
8B
 66
     1
 10
0.0
 20
0.0
 30
0.0
 70
     1
 40
0.1016
 41
0.1016
 75
     8
  0
VERTEX
  8
TOPOVERLAY
  5
8C
 10
-6.7818
 20
-7.492004
 30
0.0
 42
1.0
  0
VERTEX
  8
TOPOVERLAY
  5
8D
 10
-6.6802
 20
-7.492004
 30
0.0
 42
1.0
  0
SEQEND
  8
0
  5
8E
  0
POLYLINE
  8
TOPOVERLAY
  5
8F
 66
     1
 10
0.0
 20
0.0
 30
0.0
 70
     1
 40
0.1016
 41
0.1016
 75
     8
  0
VERTEX
  8
TOPOVERLAY
  5
90
 10
-4.1148
 20
-7.492004
 30
0.0
 42
1.0
  0
VERTEX
  8
TOPOVERLAY
  5
91
 10
-4.0132
 20
-7.492004
 30
0.0
 42
1.0
  0
SEQEND
  8
0
  5
92
  0
POLYLINE
  8
TOPOVERLAY
  5
93
 66
     1
 10
0.0
 20
0.0
 30
0.0
 70
     1
 40
0.762
 41
0.762
 75
     8
  0
VERTEX
  8
TOPOVERLAY
  5
94
 10
2.605999
 20
1.143
 30
0.0
 42
1.0
  0
VERTEX
  8
TOPOVERLAY
  5
95
 10
1.887581
 20
1.143
 30
0.0
 42
1.0
  0
SEQEND
  8
0
  5
96
  0
POLYLINE
  8
TOPOVERLAY
  5
97
 66
     1
 10
0.0
 20
0.0
 30
0.0
 70
     1
 40
0.381
 41
0.381
 75
     8
  0
VERTEX
  8
TOPOVERLAY
  5
98
 10
2.415499
 20
1.143
 30
0.0
 42
1.0
  0
VERTEX
  8
TOPOVERLAY
  5
99
 10
2.796499
 20
1.143
 30
0.0
 42
1.0
  0
SEQEND
  8
0
  5
9A
  0
POLYLINE
  8
TOPOVERLAY
  5
9B
 66
     1
 10
0.0
 20
0.0
 30
0.0
 70
     1
 40
0.381
 41
0.381
 75
     8
  0
VERTEX
  8
TOPOVERLAY
  5
9C
 10
1.697081
 20
1.143
 30
0.0
 42
1.0
  0
VERTEX
  8
TOPOVERLAY
  5
9D
 10
2.078081
 20
1.143
 30
0.0
 42
1.0
  0
SEQEND
  8
0
  5
9E
  0
POLYLINE
  8
TOPOVERLAY
  5
9F
 66
     1
 10
0.0
 20
0.0
 30
0.0
 40
0.254
 41
0.254
 75
     8
  0
VERTEX
  8
TOPOVERLAY
  5
A0
 10
18.455432
 20
3.697455
 30
0.0
 42
-0.346073
  0
VERTEX
  8
TOPOVERLAY
  5
A1
 10
26.061162
 20
3.424189
 30
0.0
  0
SEQEND
  8
0
  5
A2
  0
POLYLINE
  8
TOPOVERLAY
  5
A3
 66
     1
 10
0.0
 20
0.0
 30
0.0
 70
     1
 40
0.127
 41
0.127
 75
     8
  0
VERTEX
  8
TOPOVERLAY
  5
A4
 10
18.391932
 20
3.697455
 30
0.0
 42
1.0
  0
VERTEX
  8
TOPOVERLAY
  5
A5
 10
18.518932
 20
3.697455
 30
0.0
 42
1.0
  0
SEQEND
  8
0
  5
A6
  0
POLYLINE
  8
TOPOVERLAY
  5
A7
 66
     1
 10
0.0
 20
0.0
 30
0.0
 70
     1
 40
0.127
 41
0.127
 75
     8
  0
VERTEX
  8
TOPOVERLAY
  5
A8
 10
25.997662
 20
3.424189
 30
0.0
 42
1.0
  0
VERTEX
  8
TOPOVERLAY
  5
A9
 10
26.124662
 20
3.424189
 30
0.0
 42
1.0
  0
SEQEND
  8
0
  5
AA
  0
POLYLINE
  8
TOPOVERLAY
  5
AB
 66
     1
 10
0.0
 20
0.0
 30
0.0
 40
0.254
 41
0.254
 75
     8
  0
VERTEX
  8
TOPOVERLAY
  5
AC
 10
26.131571
 20
-13.477446
 30
0.0
 42
-0.346073
  0
VERTEX
  8
TOPOVERLAY
  5
AD
 10
18.525841
 20
-13.20418
 30
0.0
  0
SEQEND
  8
0
  5
AE
  0
POLYLINE
  8
TOPOVERLAY
  5
AF
 66
     1
 10
0.0
 20
0.0
 30
0.0
 70
     1
 40
0.127
 41
0.127
 75
     8
  0
VERTEX
  8
TOPOVERLAY
  5
B0
 10
26.068071
 20
-13.477446
 30
0.0
 42
1.0
  0
VERTEX
  8
TOPOVERLAY
  5
B1
 10
26.195071
 20
-13.477446
 30
0.0
 42
1.0
  0
SEQEND
  8
0
  5
B2
  0
POLYLINE
  8
TOPOVERLAY
  5
B3
 66
     1
 10
0.0
 20
0.0
 30
0.0
 70
     1
 40
0.127
 41
0.127
 75
     8
  0
VERTEX
  8
TOPOVERLAY
  5
B4
 10
18.462341
 20
-13.20418
 30
0.0
 42
1.0
  0
VERTEX
  8
TOPOVERLAY
  5
B5
 10
18.589341
 20
-13.20418
 30
0.0
 42
1.0
  0
SEQEND
  8
0
  5
B6
  0
POLYLINE
  8
TOPLAYER
  5
B7
 66
     1
 10
0.0
 20
0.0
 30
0.0
 70
     1
 40
0.499999
 41
0.499999
 75
     8
  0
VERTEX
  8
TOPLAYER
  5
B8
 10
17.380001
 20
-13.144503
 30
0.0
 42
1.0
  0
VERTEX
  8
TOPLAYER
  5
B9
 10
19.449999
 20
-13.144503
 30
0.0
 42
1.0
  0
SEQEND
  8
0
  5
BA
  0
POLYLINE
  8
BOTTOMLAYER
  5
BB
 66
     1
 10
0.0
 20
0.0
 30
0.0
 70
     1
 40
0.499999
 41
0.499999
 75
     8
  0
VERTEX
  8
BOTTOMLAYER
  5
BC
 10
17.380001
 20
-13.144503
 30
0.0
 42
1.0
  0
VERTEX
  8
BOTTOMLAYER
  5
BD
 10
19.449999
 20
-13.144503
 30
0.0
 42
1.0
  0
SEQEND
  8
0
  5
BE
  0
POLYLINE
  8
TOPSOLDER
  5
BF
 66
     1
 10
0.0
 20
0.0
 30
0.0
 70
     1
 40
0.550799
 41
0.550799
 75
     8
  0
VERTEX
  8
TOPSOLDER
  5
C0
 10
17.354601
 20
-13.144503
 30
0.0
 42
1.0
  0
VERTEX
  8
TOPSOLDER
  5
C1
 10
19.475399
 20
-13.144503
 30
0.0
 42
1.0
  0
SEQEND
  8
0
  5
C2
  0
POLYLINE
  8
BOTTOMSOLDER
  5
C3
 66
     1
 10
0.0
 20
0.0
 30
0.0
 70
     1
 40
0.550799
 41
0.550799
 75
     8
  0
VERTEX
  8
BOTTOMSOLDER
  5
C4
 10
17.354601
 20
-13.144503
 30
0.0
 42
1.0
  0
VERTEX
  8
BOTTOMSOLDER
  5
C5
 10
19.475399
 20
-13.144503
 30
0.0
 42
1.0
  0
SEQEND
  8
0
  5
C6
  0
POLYLINE
  8
MULTILAYER
  5
C7
 66
     1
 10
0.0
 20
0.0
 30
0.0
 70
     1
 40
0.499999
 41
0.499999
 75
     8
  0
VERTEX
  8
MULTILAYER
  5
C8
 10
17.380001
 20
-13.144503
 30
0.0
 42
1.0
  0
VERTEX
  8
MULTILAYER
  5
C9
 10
19.449999
 20
-13.144503
 30
0.0
 42
1.0
  0
SEQEND
  8
0
  5
CA
  0
POLYLINE
  8
TOPLAYER
  5
CB
 66
     1
 10
0.0
 20
0.0
 30
0.0
 70
     1
 40
0.499999
 41
0.499999
 75
     8
  0
VERTEX
  8
TOPLAYER
  5
CC
 10
17.380001
 20
2.984497
 30
0.0
 42
1.0
  0
VERTEX
  8
TOPLAYER
  5
CD
 10
19.449999
 20
2.984497
 30
0.0
 42
1.0
  0
SEQEND
  8
0
  5
CE
  0
POLYLINE
  8
BOTTOMLAYER
  5
CF
 66
     1
 10
0.0
 20
0.0
 30
0.0
 70
     1
 40
0.499999
 41
0.499999
 75
     8
  0
VERTEX
  8
BOTTOMLAYER
  5
D0
 10
17.380001
 20
2.984497
 30
0.0
 42
1.0
  0
VERTEX
  8
BOTTOMLAYER
  5
D1
 10
19.449999
 20
2.984497
 30
0.0
 42
1.0
  0
SEQEND
  8
0
  5
D2
  0
POLYLINE
  8
TOPSOLDER
  5
D3
 66
     1
 10
0.0
 20
0.0
 30
0.0
 70
     1
 40
0.550799
 41
0.550799
 75
     8
  0
VERTEX
  8
TOPSOLDER
  5
D4
 10
17.354601
 20
2.984497
 30
0.0
 42
1.0
  0
VERTEX
  8
TOPSOLDER
  5
D5
 10
19.475399
 20
2.984497
 30
0.0
 42
1.0
  0
SEQEND
  8
0
  5
D6
  0
POLYLINE
  8
BOTTOMSOLDER
  5
D7
 66
     1
 10
0.0
 20
0.0
 30
0.0
 70
     1
 40
0.550799
 41
0.550799
 75
     8
  0
VERTEX
  8
BOTTOMSOLDER
  5
D8
 10
17.354601
 20
2.984497
 30
0.0
 42
1.0
  0
VERTEX
  8
BOTTOMSOLDER
  5
D9
 10
19.475399
 20
2.984497
 30
0.0
 42
1.0
  0
SEQEND
  8
0
  5
DA
  0
POLYLINE
  8
MULTILAYER
  5
DB
 66
     1
 10
0.0
 20
0.0
 30
0.0
 70
     1
 40
0.499999
 41
0.499999
 75
     8
  0
VERTEX
  8
MULTILAYER
  5
DC
 10
17.380001
 20
2.984497
 30
0.0
 42
1.0
  0
VERTEX
  8
MULTILAYER
  5
DD
 10
19.449999
 20
2.984497
 30
0.0
 42
1.0
  0
SEQEND
  8
0
  5
DE
  0
POLYLINE
  8
TOPLAYER
  5
DF
 66
     1
 10
0.0
 20
0.0
 30
0.0
 70
     1
 40
0.3429
 41
0.3429
 75
     8
  0
VERTEX
  8
TOPLAYER
  5
E0
 10
-5.79755
 20
-11.176
 30
0.0
 42
1.0
  0
VERTEX
  8
TOPLAYER
  5
E1
 10
-4.36245
 20
-11.176
 30
0.0
 42
1.0
  0
SEQEND
  8
0
  5
E2
  0
POLYLINE
  8
BOTTOMLAYER
  5
E3
 66
     1
 10
0.0
 20
0.0
 30
0.0
 70
     1
 40
0.3429
 41
0.3429
 75
     8
  0
VERTEX
  8
BOTTOMLAYER
  5
E4
 10
-5.79755
 20
-11.176
 30
0.0
 42
1.0
  0
VERTEX
  8
BOTTOMLAYER
  5
E5
 10
-4.36245
 20
-11.176
 30
0.0
 42
1.0
  0
SEQEND
  8
0
  5
E6
  0
POLYLINE
  8
TOPSOLDER
  5
E7
 66
     1
 10
0.0
 20
0.0
 30
0.0
 70
     1
 40
0.3937
 41
0.3937
 75
     8
  0
VERTEX
  8
TOPSOLDER
  5
E8
 10
-5.82295
 20
-11.176
 30
0.0
 42
1.0
  0
VERTEX
  8
TOPSOLDER
  5
E9
 10
-4.33705
 20
-11.176
 30
0.0
 42
1.0
  0
SEQEND
  8
0
  5
EA
  0
POLYLINE
  8
BOTTOMSOLDER
  5
EB
 66
     1
 10
0.0
 20
0.0
 30
0.0
 70
     1
 40
0.3937
 41
0.3937
 75
     8
  0
VERTEX
  8
BOTTOMSOLDER
  5
EC
 10
-5.82295
 20
-11.176
 30
0.0
 42
1.0
  0
VERTEX
  8
BOTTOMSOLDER
  5
ED
 10
-4.33705
 20
-11.176
 30
0.0
 42
1.0
  0
SEQEND
  8
0
  5
EE
  0
POLYLINE
  8
MULTILAYER
  5
EF
 66
     1
 10
0.0
 20
0.0
 30
0.0
 70
     1
 40
0.3429
 41
0.3429
 75
     8
  0
VERTEX
  8
MULTILAYER
  5
F0
 10
-5.79755
 20
-11.176
 30
0.0
 42
1.0
  0
VERTEX
  8
MULTILAYER
  5
F1
 10
-4.36245
 20
-11.176
 30
0.0
 42
1.0
  0
SEQEND
  8
0
  5
F2
  0
POLYLINE
  8
TOPLAYER
  5
F3
 66
     1
 10
0.0
 20
0.0
 30
0.0
 70
     1
 40
0.3429
 41
0.3429
 75
     8
  0
VERTEX
  8
TOPLAYER
  5
F4
 10
-5.79755
 20
-8.636
 30
0.0
 42
1.0
  0
VERTEX
  8
TOPLAYER
  5
F5
 10
-4.36245
 20
-8.636
 30
0.0
 42
1.0
  0
SEQEND
  8
0
  5
F6
  0
POLYLINE
  8
BOTTOMLAYER
  5
F7
 66
     1
 10
0.0
 20
0.0
 30
0.0
 70
     1
 40
0.3429
 41
0.3429
 75
     8
  0
VERTEX
  8
BOTTOMLAYER
  5
F8
 10
-5.79755
 20
-8.636
 30
0.0
 42
1.0
  0
VERTEX
  8
BOTTOMLAYER
  5
F9
 10
-4.36245
 20
-8.636
 30
0.0
 42
1.0
  0
SEQEND
  8
0
  5
FA
  0
POLYLINE
  8
TOPSOLDER
  5
FB
 66
     1
 10
0.0
 20
0.0
 30
0.0
 70
     1
 40
0.3937
 41
0.3937
 75
     8
  0
VERTEX
  8
TOPSOLDER
  5
FC
 10
-5.82295
 20
-8.636
 30
0.0
 42
1.0
  0
VERTEX
  8
TOPSOLDER
  5
FD
 10
-4.33705
 20
-8.636
 30
0.0
 42
1.0
  0
SEQEND
  8
0
  5
FE
  0
POLYLINE
  8
BOTTOMSOLDER
  5
FF
 66
     1
 10
0.0
 20
0.0
 30
0.0
 70
     1
 40
0.3937
 41
0.3937
 75
     8
  0
VERTEX
  8
BOTTOMSOLDER
  5
100
 10
-5.82295
 20
-8.636
 30
0.0
 42
1.0
  0
VERTEX
  8
BOTTOMSOLDER
  5
101
 10
-4.33705
 20
-8.636
 30
0.0
 42
1.0
  0
SEQEND
  8
0
  5
102
  0
POLYLINE
  8
MULTILAYER
  5
103
 66
     1
 10
0.0
 20
0.0
 30
0.0
 70
     1
 40
0.3429
 41
0.3429
 75
     8
  0
VERTEX
  8
MULTILAYER
  5
104
 10
-5.79755
 20
-8.636
 30
0.0
 42
1.0
  0
VERTEX
  8
MULTILAYER
  5
105
 10
-4.36245
 20
-8.636
 30
0.0
 42
1.0
  0
SEQEND
  8
0
  5
106
  0
POLYLINE
  8
TOPLAYER
  5
107
 66
     1
 10
0.0
 20
0.0
 30
0.0
 70
     1
 40
0.3429
 41
0.3429
 75
     8
  0
VERTEX
  8
TOPLAYER
  5
108
 10
-5.79755
 20
-1.524
 30
0.0
 42
1.0
  0
VERTEX
  8
TOPLAYER
  5
109
 10
-4.36245
 20
-1.524
 30
0.0
 42
1.0
  0
SEQEND
  8
0
  5
10A
  0
POLYLINE
  8
BOTTOMLAYER
  5
10B
 66
     1
 10
0.0
 20
0.0
 30
0.0
 70
     1
 40
0.3429
 41
0.3429
 75
     8
  0
VERTEX
  8
BOTTOMLAYER
  5
10C
 10
-5.79755
 20
-1.524
 30
0.0
 42
1.0
  0
VERTEX
  8
BOTTOMLAYER
  5
10D
 10
-4.36245
 20
-1.524
 30
0.0
 42
1.0
  0
SEQEND
  8
0
  5
10E
  0
POLYLINE
  8
TOPSOLDER
  5
10F
 66
     1
 10
0.0
 20
0.0
 30
0.0
 70
     1
 40
0.3937
 41
0.3937
 75
     8
  0
VERTEX
  8
TOPSOLDER
  5
110
 10
-5.82295
 20
-1.524
 30
0.0
 42
1.0
  0
VERTEX
  8
TOPSOLDER
  5
111
 10
-4.33705
 20
-1.524
 30
0.0
 42
1.0
  0
SEQEND
  8
0
  5
112
  0
POLYLINE
  8
BOTTOMSOLDER
  5
113
 66
     1
 10
0.0
 20
0.0
 30
0.0
 70
     1
 40
0.3937
 41
0.3937
 75
     8
  0
VERTEX
  8
BOTTOMSOLDER
  5
114
 10
-5.82295
 20
-1.524
 30
0.0
 42
1.0
  0
VERTEX
  8
BOTTOMSOLDER
  5
115
 10
-4.33705
 20
-1.524
 30
0.0
 42
1.0
  0
SEQEND
  8
0
  5
116
  0
POLYLINE
  8
MULTILAYER
  5
117
 66
     1
 10
0.0
 20
0.0
 30
0.0
 70
     1
 40
0.3429
 41
0.3429
 75
     8
  0
VERTEX
  8
MULTILAYER
  5
118
 10
-5.79755
 20
-1.524
 30
0.0
 42
1.0
  0
VERTEX
  8
MULTILAYER
  5
119
 10
-4.36245
 20
-1.524
 30
0.0
 42
1.0
  0
SEQEND
  8
0
  5
11A
  0
POLYLINE
  8
TOPLAYER
  5
11B
 66
     1
 10
0.0
 20
0.0
 30
0.0
 70
     1
 40
0.3429
 41
0.3429
 75
     8
  0
VERTEX
  8
TOPLAYER
  5
11C
 10
-5.79755
 20
1.016
 30
0.0
 42
1.0
  0
VERTEX
  8
TOPLAYER
  5
11D
 10
-4.36245
 20
1.016
 30
0.0
 42
1.0
  0
SEQEND
  8
0
  5
11E
  0
POLYLINE
  8
BOTTOMLAYER
  5
11F
 66
     1
 10
0.0
 20
0.0
 30
0.0
 70
     1
 40
0.3429
 41
0.3429
 75
     8
  0
VERTEX
  8
BOTTOMLAYER
  5
120
 10
-5.79755
 20
1.016
 30
0.0
 42
1.0
  0
VERTEX
  8
BOTTOMLAYER
  5
121
 10
-4.36245
 20
1.016
 30
0.0
 42
1.0
  0
SEQEND
  8
0
  5
122
  0
POLYLINE
  8
TOPSOLDER
  5
123
 66
     1
 10
0.0
 20
0.0
 30
0.0
 70
     1
 40
0.3937
 41
0.3937
 75
     8
  0
VERTEX
  8
TOPSOLDER
  5
124
 10
-5.82295
 20
1.016
 30
0.0
 42
1.0
  0
VERTEX
  8
TOPSOLDER
  5
125
 10
-4.33705
 20
1.016
 30
0.0
 42
1.0
  0
SEQEND
  8
0
  5
126
  0
POLYLINE
  8
BOTTOMSOLDER
  5
127
 66
     1
 10
0.0
 20
0.0
 30
0.0
 70
     1
 40
0.3937
 41
0.3937
 75
     8
  0
VERTEX
  8
BOTTOMSOLDER
  5
128
 10
-5.82295
 20
1.016
 30
0.0
 42
1.0
  0
VERTEX
  8
BOTTOMSOLDER
  5
129
 10
-4.33705
 20
1.016
 30
0.0
 42
1.0
  0
SEQEND
  8
0
  5
12A
  0
POLYLINE
  8
MULTILAYER
  5
12B
 66
     1
 10
0.0
 20
0.0
 30
0.0
 70
     1
 40
0.3429
 41
0.3429
 75
     8
  0
VERTEX
  8
MULTILAYER
  5
12C
 10
-5.79755
 20
1.016
 30
0.0
 42
1.0
  0
VERTEX
  8
MULTILAYER
  5
12D
 10
-4.36245
 20
1.016
 30
0.0
 42
1.0
  0
SEQEND
  8
0
  5
12E
  0
POLYLINE
  8
TOPLAYER
  5
12F
 66
     1
 10
0.0
 20
0.0
 30
0.0
 70
     1
 40
0.1905
 41
0.1905
 75
     8
  0
VERTEX
  8
TOPLAYER
  5
130
 10
-3.07975
 20
1.016
 30
0.0
 42
1.0
  0
VERTEX
  8
TOPLAYER
  5
131
 10
-2.00025
 20
1.016
 30
0.0
 42
1.0
  0
SEQEND
  8
0
  5
132
  0
POLYLINE
  8
TOPLAYER
  5
133
 66
     1
 10
0.0
 20
0.0
 30
0.0
 40
0.1905
 41
0.1905
 75
     8
  0
VERTEX
  8
TOPLAYER
  5
134
 10
-2.794
 20
1.55575
 30
0.0
  0
VERTEX
  8
TOPLAYER
  5
135
 10
-2.286
 20
1.55575
 30
0.0
  0
SEQEND
  8
0
  5
136
  0
POLYLINE
  8
TOPLAYER
  5
137
 66
     1
 10
0.0
 20
0.0
 30
0.0
 40
0.1905
 41
0.1905
 75
     8
  0
VERTEX
  8
TOPLAYER
  5
138
 10
-2.794
 20
0.47625
 30
0.0
  0
VERTEX
  8
TOPLAYER
  5
139
 10
-2.286
 20
0.47625
 30
0.0
  0
SEQEND
  8
0
  5
13A
  0
POLYLINE
  8
TOPLAYER
  5
13B
 66
     1
 10
0.0
 20
0.0
 30
0.0
 40
0.1905
 41
0.1905
 75
     8
  0
VERTEX
  8
TOPLAYER
  5
13C
 10
-2.794
 20
0.47625
 30
0.0
 42
-1.0
  0
VERTEX
  8
TOPLAYER
  5
13D
 10
-2.794
 20
1.55575
 30
0.0
  0
SEQEND
  8
0
  5
13E
  0
POLYLINE
  8
TOPLAYER
  5
13F
 66
     1
 10
0.0
 20
0.0
 30
0.0
 40
0.1905
 41
0.1905
 75
     8
  0
VERTEX
  8
TOPLAYER
  5
140
 10
-2.286
 20
1.55575
 30
0.0
 42
-1.0
  0
VERTEX
  8
TOPLAYER
  5
141
 10
-2.286
 20
0.47625
 30
0.0
  0
SEQEND
  8
0
  5
142
  0
POLYLINE
  8
BOTTOMLAYER
  5
143
 66
     1
 10
0.0
 20
0.0
 30
0.0
 70
     1
 40
0.1905
 41
0.1905
 75
     8
  0
VERTEX
  8
BOTTOMLAYER
  5
144
 10
-3.07975
 20
1.016
 30
0.0
 42
1.0
  0
VERTEX
  8
BOTTOMLAYER
  5
145
 10
-2.00025
 20
1.016
 30
0.0
 42
1.0
  0
SEQEND
  8
0
  5
146
  0
POLYLINE
  8
BOTTOMLAYER
  5
147
 66
     1
 10
0.0
 20
0.0
 30
0.0
 40
0.1905
 41
0.1905
 75
     8
  0
VERTEX
  8
BOTTOMLAYER
  5
148
 10
-2.794
 20
1.55575
 30
0.0
  0
VERTEX
  8
BOTTOMLAYER
  5
149
 10
-2.286
 20
1.55575
 30
0.0
  0
SEQEND
  8
0
  5
14A
  0
POLYLINE
  8
BOTTOMLAYER
  5
14B
 66
     1
 10
0.0
 20
0.0
 30
0.0
 40
0.1905
 41
0.1905
 75
     8
  0
VERTEX
  8
BOTTOMLAYER
  5
14C
 10
-2.794
 20
0.47625
 30
0.0
  0
VERTEX
  8
BOTTOMLAYER
  5
14D
 10
-2.286
 20
0.47625
 30
0.0
  0
SEQEND
  8
0
  5
14E
  0
POLYLINE
  8
BOTTOMLAYER
  5
14F
 66
     1
 10
0.0
 20
0.0
 30
0.0
 40
0.1905
 41
0.1905
 75
     8
  0
VERTEX
  8
BOTTOMLAYER
  5
150
 10
-2.794
 20
0.47625
 30
0.0
 42
-1.0
  0
VERTEX
  8
BOTTOMLAYER
  5
151
 10
-2.794
 20
1.55575
 30
0.0
  0
SEQEND
  8
0
  5
152
  0
POLYLINE
  8
BOTTOMLAYER
  5
153
 66
     1
 10
0.0
 20
0.0
 30
0.0
 40
0.1905
 41
0.1905
 75
     8
  0
VERTEX
  8
BOTTOMLAYER
  5
154
 10
-2.286
 20
1.55575
 30
0.0
 42
-1.0
  0
VERTEX
  8
BOTTOMLAYER
  5
155
 10
-2.286
 20
0.47625
 30
0.0
  0
SEQEND
  8
0
  5
156
  0
POLYLINE
  8
TOPSOLDER
  5
157
 66
     1
 10
0.0
 20
0.0
 30
0.0
 70
     1
 40
0.2413
 41
0.2413
 75
     8
  0
VERTEX
  8
TOPSOLDER
  5
158
 10
-3.10515
 20
1.016
 30
0.0
 42
1.0
  0
VERTEX
  8
TOPSOLDER
  5
159
 10
-1.97485
 20
1.016
 30
0.0
 42
1.0
  0
SEQEND
  8
0
  5
15A
  0
POLYLINE
  8
TOPSOLDER
  5
15B
 66
     1
 10
0.0
 20
0.0
 30
0.0
 40
0.2413
 41
0.2413
 75
     8
  0
VERTEX
  8
TOPSOLDER
  5
15C
 10
-2.794
 20
1.58115
 30
0.0
  0
VERTEX
  8
TOPSOLDER
  5
15D
 10
-2.286
 20
1.58115
 30
0.0
  0
SEQEND
  8
0
  5
15E
  0
POLYLINE
  8
TOPSOLDER
  5
15F
 66
     1
 10
0.0
 20
0.0
 30
0.0
 40
0.2413
 41
0.2413
 75
     8
  0
VERTEX
  8
TOPSOLDER
  5
160
 10
-2.794
 20
0.45085
 30
0.0
  0
VERTEX
  8
TOPSOLDER
  5
161
 10
-2.286
 20
0.45085
 30
0.0
  0
SEQEND
  8
0
  5
162
  0
POLYLINE
  8
TOPSOLDER
  5
163
 66
     1
 10
0.0
 20
0.0
 30
0.0
 40
0.2413
 41
0.2413
 75
     8
  0
VERTEX
  8
TOPSOLDER
  5
164
 10
-2.794
 20
0.45085
 30
0.0
 42
-1.0
  0
VERTEX
  8
TOPSOLDER
  5
165
 10
-2.794
 20
1.58115
 30
0.0
  0
SEQEND
  8
0
  5
166
  0
POLYLINE
  8
TOPSOLDER
  5
167
 66
     1
 10
0.0
 20
0.0
 30
0.0
 40
0.2413
 41
0.2413
 75
     8
  0
VERTEX
  8
TOPSOLDER
  5
168
 10
-2.286
 20
1.58115
 30
0.0
 42
-1.0
  0
VERTEX
  8
TOPSOLDER
  5
169
 10
-2.286
 20
0.45085
 30
0.0
  0
SEQEND
  8
0
  5
16A
  0
POLYLINE
  8
BOTTOMSOLDER
  5
16B
 66
     1
 10
0.0
 20
0.0
 30
0.0
 70
     1
 40
0.2413
 41
0.2413
 75
     8
  0
VERTEX
  8
BOTTOMSOLDER
  5
16C
 10
-3.10515
 20
1.016
 30
0.0
 42
1.0
  0
VERTEX
  8
BOTTOMSOLDER
  5
16D
 10
-1.97485
 20
1.016
 30
0.0
 42
1.0
  0
SEQEND
  8
0
  5
16E
  0
POLYLINE
  8
BOTTOMSOLDER
  5
16F
 66
     1
 10
0.0
 20
0.0
 30
0.0
 40
0.2413
 41
0.2413
 75
     8
  0
VERTEX
  8
BOTTOMSOLDER
  5
170
 10
-2.794
 20
1.58115
 30
0.0
  0
VERTEX
  8
BOTTOMSOLDER
  5
171
 10
-2.286
 20
1.58115
 30
0.0
  0
SEQEND
  8
0
  5
172
  0
POLYLINE
  8
BOTTOMSOLDER
  5
173
 66
     1
 10
0.0
 20
0.0
 30
0.0
 40
0.2413
 41
0.2413
 75
     8
  0
VERTEX
  8
BOTTOMSOLDER
  5
174
 10
-2.794
 20
0.45085
 30
0.0
  0
VERTEX
  8
BOTTOMSOLDER
  5
175
 10
-2.286
 20
0.45085
 30
0.0
  0
SEQEND
  8
0
  5
176
  0
POLYLINE
  8
BOTTOMSOLDER
  5
177
 66
     1
 10
0.0
 20
0.0
 30
0.0
 40
0.2413
 41
0.2413
 75
     8
  0
VERTEX
  8
BOTTOMSOLDER
  5
178
 10
-2.794
 20
0.45085
 30
0.0
 42
-1.0
  0
VERTEX
  8
BOTTOMSOLDER
  5
179
 10
-2.794
 20
1.58115
 30
0.0
  0
SEQEND
  8
0
  5
17A
  0
POLYLINE
  8
BOTTOMSOLDER
  5
17B
 66
     1
 10
0.0
 20
0.0
 30
0.0
 40
0.2413
 41
0.2413
 75
     8
  0
VERTEX
  8
BOTTOMSOLDER
  5
17C
 10
-2.286
 20
1.58115
 30
0.0
 42
-1.0
  0
VERTEX
  8
BOTTOMSOLDER
  5
17D
 10
-2.286
 20
0.45085
 30
0.0
  0
SEQEND
  8
0
  5
17E
  0
POLYLINE
  8
MULTILAYER
  5
17F
 66
     1
 10
0.0
 20
0.0
 30
0.0
 70
     1
 40
0.1905
 41
0.1905
 75
     8
  0
VERTEX
  8
MULTILAYER
  5
180
 10
-3.07975
 20
1.016
 30
0.0
 42
1.0
  0
VERTEX
  8
MULTILAYER
  5
181
 10
-2.00025
 20
1.016
 30
0.0
 42
1.0
  0
SEQEND
  8
0
  5
182
  0
POLYLINE
  8
MULTILAYER
  5
183
 66
     1
 10
0.0
 20
0.0
 30
0.0
 40
0.1905
 41
0.1905
 75
     8
  0
VERTEX
  8
MULTILAYER
  5
184
 10
-2.794
 20
1.55575
 30
0.0
  0
VERTEX
  8
MULTILAYER
  5
185
 10
-2.286
 20
1.55575
 30
0.0
  0
SEQEND
  8
0
  5
186
  0
POLYLINE
  8
MULTILAYER
  5
187
 66
     1
 10
0.0
 20
0.0
 30
0.0
 40
0.1905
 41
0.1905
 75
     8
  0
VERTEX
  8
MULTILAYER
  5
188
 10
-2.794
 20
0.47625
 30
0.0
  0
VERTEX
  8
MULTILAYER
  5
189
 10
-2.286
 20
0.47625
 30
0.0
  0
SEQEND
  8
0
  5
18A
  0
POLYLINE
  8
MULTILAYER
  5
18B
 66
     1
 10
0.0
 20
0.0
 30
0.0
 40
0.1905
 41
0.1905
 75
     8
  0
VERTEX
  8
MULTILAYER
  5
18C
 10
-2.794
 20
0.47625
 30
0.0
 42
-1.0
  0
VERTEX
  8
MULTILAYER
  5
18D
 10
-2.794
 20
1.55575
 30
0.0
  0
SEQEND
  8
0
  5
18E
  0
POLYLINE
  8
MULTILAYER
  5
18F
 66
     1
 10
0.0
 20
0.0
 30
0.0
 40
0.1905
 41
0.1905
 75
     8
  0
VERTEX
  8
MULTILAYER
  5
190
 10
-2.286
 20
1.55575
 30
0.0
 42
-1.0
  0
VERTEX
  8
MULTILAYER
  5
191
 10
-2.286
 20
0.47625
 30
0.0
  0
SEQEND
  8
0
  5
192
  0
POLYLINE
  8
TOPLAYER
  5
193
 66
     1
 10
0.0
 20
0.0
 30
0.0
 70
     1
 40
0.1905
 41
0.1905
 75
     8
  0
VERTEX
  8
TOPLAYER
  5
194
 10
-3.07975
 20
-1.016
 30
0.0
 42
1.0
  0
VERTEX
  8
TOPLAYER
  5
195
 10
-2.00025
 20
-1.016
 30
0.0
 42
1.0
  0
SEQEND
  8
0
  5
196
  0
POLYLINE
  8
TOPLAYER
  5
197
 66
     1
 10
0.0
 20
0.0
 30
0.0
 40
0.1905
 41
0.1905
 75
     8
  0
VERTEX
  8
TOPLAYER
  5
198
 10
-2.794
 20
-0.47625
 30
0.0
  0
VERTEX
  8
TOPLAYER
  5
199
 10
-2.286
 20
-0.47625
 30
0.0
  0
SEQEND
  8
0
  5
19A
  0
POLYLINE
  8
TOPLAYER
  5
19B
 66
     1
 10
0.0
 20
0.0
 30
0.0
 40
0.1905
 41
0.1905
 75
     8
  0
VERTEX
  8
TOPLAYER
  5
19C
 10
-2.794
 20
-1.55575
 30
0.0
  0
VERTEX
  8
TOPLAYER
  5
19D
 10
-2.286
 20
-1.55575
 30
0.0
  0
SEQEND
  8
0
  5
19E
  0
POLYLINE
  8
TOPLAYER
  5
19F
 66
     1
 10
0.0
 20
0.0
 30
0.0
 40
0.1905
 41
0.1905
 75
     8
  0
VERTEX
  8
TOPLAYER
  5
1A0
 10
-2.794
 20
-1.55575
 30
0.0
 42
-1.0
  0
VERTEX
  8
TOPLAYER
  5
1A1
 10
-2.794
 20
-0.47625
 30
0.0
  0
SEQEND
  8
0
  5
1A2
  0
POLYLINE
  8
TOPLAYER
  5
1A3
 66
     1
 10
0.0
 20
0.0
 30
0.0
 40
0.1905
 41
0.1905
 75
     8
  0
VERTEX
  8
TOPLAYER
  5
1A4
 10
-2.286
 20
-0.47625
 30
0.0
 42
-1.0
  0
VERTEX
  8
TOPLAYER
  5
1A5
 10
-2.286
 20
-1.55575
 30
0.0
  0
SEQEND
  8
0
  5
1A6
  0
POLYLINE
  8
BOTTOMLAYER
  5
1A7
 66
     1
 10
0.0
 20
0.0
 30
0.0
 70
     1
 40
0.1905
 41
0.1905
 75
     8
  0
VERTEX
  8
BOTTOMLAYER
  5
1A8
 10
-3.07975
 20
-1.016
 30
0.0
 42
1.0
  0
VERTEX
  8
BOTTOMLAYER
  5
1A9
 10
-2.00025
 20
-1.016
 30
0.0
 42
1.0
  0
SEQEND
  8
0
  5
1AA
  0
POLYLINE
  8
BOTTOMLAYER
  5
1AB
 66
     1
 10
0.0
 20
0.0
 30
0.0
 40
0.1905
 41
0.1905
 75
     8
  0
VERTEX
  8
BOTTOMLAYER
  5
1AC
 10
-2.794
 20
-0.47625
 30
0.0
  0
VERTEX
  8
BOTTOMLAYER
  5
1AD
 10
-2.286
 20
-0.47625
 30
0.0
  0
SEQEND
  8
0
  5
1AE
  0
POLYLINE
  8
BOTTOMLAYER
  5
1AF
 66
     1
 10
0.0
 20
0.0
 30
0.0
 40
0.1905
 41
0.1905
 75
     8
  0
VERTEX
  8
BOTTOMLAYER
  5
1B0
 10
-2.794
 20
-1.55575
 30
0.0
  0
VERTEX
  8
BOTTOMLAYER
  5
1B1
 10
-2.286
 20
-1.55575
 30
0.0
  0
SEQEND
  8
0
  5
1B2
  0
POLYLINE
  8
BOTTOMLAYER
  5
1B3
 66
     1
 10
0.0
 20
0.0
 30
0.0
 40
0.1905
 41
0.1905
 75
     8
  0
VERTEX
  8
BOTTOMLAYER
  5
1B4
 10
-2.794
 20
-1.55575
 30
0.0
 42
-1.0
  0
VERTEX
  8
BOTTOMLAYER
  5
1B5
 10
-2.794
 20
-0.47625
 30
0.0
  0
SEQEND
  8
0
  5
1B6
  0
POLYLINE
  8
BOTTOMLAYER
  5
1B7
 66
     1
 10
0.0
 20
0.0
 30
0.0
 40
0.1905
 41
0.1905
 75
     8
  0
VERTEX
  8
BOTTOMLAYER
  5
1B8
 10
-2.286
 20
-0.47625
 30
0.0
 42
-1.0
  0
VERTEX
  8
BOTTOMLAYER
  5
1B9
 10
-2.286
 20
-1.55575
 30
0.0
  0
SEQEND
  8
0
  5
1BA
  0
POLYLINE
  8
TOPSOLDER
  5
1BB
 66
     1
 10
0.0
 20
0.0
 30
0.0
 70
     1
 40
0.2413
 41
0.2413
 75
     8
  0
VERTEX
  8
TOPSOLDER
  5
1BC
 10
-3.10515
 20
-1.016
 30
0.0
 42
1.0
  0
VERTEX
  8
TOPSOLDER
  5
1BD
 10
-1.97485
 20
-1.016
 30
0.0
 42
1.0
  0
SEQEND
  8
0
  5
1BE
  0
POLYLINE
  8
TOPSOLDER
  5
1BF
 66
     1
 10
0.0
 20
0.0
 30
0.0
 40
0.2413
 41
0.2413
 75
     8
  0
VERTEX
  8
TOPSOLDER
  5
1C0
 10
-2.794
 20
-0.45085
 30
0.0
  0
VERTEX
  8
TOPSOLDER
  5
1C1
 10
-2.286
 20
-0.45085
 30
0.0
  0
SEQEND
  8
0
  5
1C2
  0
POLYLINE
  8
TOPSOLDER
  5
1C3
 66
     1
 10
0.0
 20
0.0
 30
0.0
 40
0.2413
 41
0.2413
 75
     8
  0
VERTEX
  8
TOPSOLDER
  5
1C4
 10
-2.794
 20
-1.58115
 30
0.0
  0
VERTEX
  8
TOPSOLDER
  5
1C5
 10
-2.286
 20
-1.58115
 30
0.0
  0
SEQEND
  8
0
  5
1C6
  0
POLYLINE
  8
TOPSOLDER
  5
1C7
 66
     1
 10
0.0
 20
0.0
 30
0.0
 40
0.2413
 41
0.2413
 75
     8
  0
VERTEX
  8
TOPSOLDER
  5
1C8
 10
-2.794
 20
-1.58115
 30
0.0
 42
-1.0
  0
VERTEX
  8
TOPSOLDER
  5
1C9
 10
-2.794
 20
-0.45085
 30
0.0
  0
SEQEND
  8
0
  5
1CA
  0
POLYLINE
  8
TOPSOLDER
  5
1CB
 66
     1
 10
0.0
 20
0.0
 30
0.0
 40
0.2413
 41
0.2413
 75
     8
  0
VERTEX
  8
TOPSOLDER
  5
1CC
 10
-2.286
 20
-0.45085
 30
0.0
 42
-1.0
  0
VERTEX
  8
TOPSOLDER
  5
1CD
 10
-2.286
 20
-1.58115
 30
0.0
  0
SEQEND
  8
0
  5
1CE
  0
POLYLINE
  8
BOTTOMSOLDER
  5
1CF
 66
     1
 10
0.0
 20
0.0
 30
0.0
 70
     1
 40
0.2413
 41
0.2413
 75
     8
  0
VERTEX
  8
BOTTOMSOLDER
  5
1D0
 10
-3.10515
 20
-1.016
 30
0.0
 42
1.0
  0
VERTEX
  8
BOTTOMSOLDER
  5
1D1
 10
-1.97485
 20
-1.016
 30
0.0
 42
1.0
  0
SEQEND
  8
0
  5
1D2
  0
POLYLINE
  8
BOTTOMSOLDER
  5
1D3
 66
     1
 10
0.0
 20
0.0
 30
0.0
 40
0.2413
 41
0.2413
 75
     8
  0
VERTEX
  8
BOTTOMSOLDER
  5
1D4
 10
-2.794
 20
-0.45085
 30
0.0
  0
VERTEX
  8
BOTTOMSOLDER
  5
1D5
 10
-2.286
 20
-0.45085
 30
0.0
  0
SEQEND
  8
0
  5
1D6
  0
POLYLINE
  8
BOTTOMSOLDER
  5
1D7
 66
     1
 10
0.0
 20
0.0
 30
0.0
 40
0.2413
 41
0.2413
 75
     8
  0
VERTEX
  8
BOTTOMSOLDER
  5
1D8
 10
-2.794
 20
-1.58115
 30
0.0
  0
VERTEX
  8
BOTTOMSOLDER
  5
1D9
 10
-2.286
 20
-1.58115
 30
0.0
  0
SEQEND
  8
0
  5
1DA
  0
POLYLINE
  8
BOTTOMSOLDER
  5
1DB
 66
     1
 10
0.0
 20
0.0
 30
0.0
 40
0.2413
 41
0.2413
 75
     8
  0
VERTEX
  8
BOTTOMSOLDER
  5
1DC
 10
-2.794
 20
-1.58115
 30
0.0
 42
-1.0
  0
VERTEX
  8
BOTTOMSOLDER
  5
1DD
 10
-2.794
 20
-0.45085
 30
0.0
  0
SEQEND
  8
0
  5
1DE
  0
POLYLINE
  8
BOTTOMSOLDER
  5
1DF
 66
     1
 10
0.0
 20
0.0
 30
0.0
 40
0.2413
 41
0.2413
 75
     8
  0
VERTEX
  8
BOTTOMSOLDER
  5
1E0
 10
-2.286
 20
-0.45085
 30
0.0
 42
-1.0
  0
VERTEX
  8
BOTTOMSOLDER
  5
1E1
 10
-2.286
 20
-1.58115
 30
0.0
  0
SEQEND
  8
0
  5
1E2
  0
POLYLINE
  8
MULTILAYER
  5
1E3
 66
     1
 10
0.0
 20
0.0
 30
0.0
 70
     1
 40
0.1905
 41
0.1905
 75
     8
  0
VERTEX
  8
MULTILAYER
  5
1E4
 10
-3.07975
 20
-1.016
 30
0.0
 42
1.0
  0
VERTEX
  8
MULTILAYER
  5
1E5
 10
-2.00025
 20
-1.016
 30
0.0
 42
1.0
  0
SEQEND
  8
0
  5
1E6
  0
POLYLINE
  8
MULTILAYER
  5
1E7
 66
     1
 10
0.0
 20
0.0
 30
0.0
 40
0.1905
 41
0.1905
 75
     8
  0
VERTEX
  8
MULTILAYER
  5
1E8
 10
-2.794
 20
-0.47625
 30
0.0
  0
VERTEX
  8
MULTILAYER
  5
1E9
 10
-2.286
 20
-0.47625
 30
0.0
  0
SEQEND
  8
0
  5
1EA
  0
POLYLINE
  8
MULTILAYER
  5
1EB
 66
     1
 10
0.0
 20
0.0
 30
0.0
 40
0.1905
 41
0.1905
 75
     8
  0
VERTEX
  8
MULTILAYER
  5
1EC
 10
-2.794
 20
-1.55575
 30
0.0
  0
VERTEX
  8
MULTILAYER
  5
1ED
 10
-2.286
 20
-1.55575
 30
0.0
  0
SEQEND
  8
0
  5
1EE
  0
POLYLINE
  8
MULTILAYER
  5
1EF
 66
     1
 10
0.0
 20
0.0
 30
0.0
 40
0.1905
 41
0.1905
 75
     8
  0
VERTEX
  8
MULTILAYER
  5
1F0
 10
-2.794
 20
-1.55575
 30
0.0
 42
-1.0
  0
VERTEX
  8
MULTILAYER
  5
1F1
 10
-2.794
 20
-0.47625
 30
0.0
  0
SEQEND
  8
0
  5
1F2
  0
POLYLINE
  8
MULTILAYER
  5
1F3
 66
     1
 10
0.0
 20
0.0
 30
0.0
 40
0.1905
 41
0.1905
 75
     8
  0
VERTEX
  8
MULTILAYER
  5
1F4
 10
-2.286
 20
-0.47625
 30
0.0
 42
-1.0
  0
VERTEX
  8
MULTILAYER
  5
1F5
 10
-2.286
 20
-1.55575
 30
0.0
  0
SEQEND
  8
0
  5
1F6
  0
POLYLINE
  8
TOPLAYER
  5
1F7
 66
     1
 10
0.0
 20
0.0
 30
0.0
 70
     1
 40
0.1905
 41
0.1905
 75
     8
  0
VERTEX
  8
TOPLAYER
  5
1F8
 10
-3.07975
 20
-3.048
 30
0.0
 42
1.0
  0
VERTEX
  8
TOPLAYER
  5
1F9
 10
-2.00025
 20
-3.048
 30
0.0
 42
1.0
  0
SEQEND
  8
0
  5
1FA
  0
POLYLINE
  8
TOPLAYER
  5
1FB
 66
     1
 10
0.0
 20
0.0
 30
0.0
 40
0.1905
 41
0.1905
 75
     8
  0
VERTEX
  8
TOPLAYER
  5
1FC
 10
-2.794
 20
-2.50825
 30
0.0
  0
VERTEX
  8
TOPLAYER
  5
1FD
 10
-2.286
 20
-2.50825
 30
0.0
  0
SEQEND
  8
0
  5
1FE
  0
POLYLINE
  8
TOPLAYER
  5
1FF
 66
     1
 10
0.0
 20
0.0
 30
0.0
 40
0.1905
 41
0.1905
 75
     8
  0
VERTEX
  8
TOPLAYER
  5
200
 10
-2.794
 20
-3.58775
 30
0.0
  0
VERTEX
  8
TOPLAYER
  5
201
 10
-2.286
 20
-3.58775
 30
0.0
  0
SEQEND
  8
0
  5
202
  0
POLYLINE
  8
TOPLAYER
  5
203
 66
     1
 10
0.0
 20
0.0
 30
0.0
 40
0.1905
 41
0.1905
 75
     8
  0
VERTEX
  8
TOPLAYER
  5
204
 10
-2.794
 20
-3.58775
 30
0.0
 42
-1.0
  0
VERTEX
  8
TOPLAYER
  5
205
 10
-2.794
 20
-2.50825
 30
0.0
  0
SEQEND
  8
0
  5
206
  0
POLYLINE
  8
TOPLAYER
  5
207
 66
     1
 10
0.0
 20
0.0
 30
0.0
 40
0.1905
 41
0.1905
 75
     8
  0
VERTEX
  8
TOPLAYER
  5
208
 10
-2.286
 20
-2.50825
 30
0.0
 42
-1.0
  0
VERTEX
  8
TOPLAYER
  5
209
 10
-2.286
 20
-3.58775
 30
0.0
  0
SEQEND
  8
0
  5
20A
  0
POLYLINE
  8
BOTTOMLAYER
  5
20B
 66
     1
 10
0.0
 20
0.0
 30
0.0
 70
     1
 40
0.1905
 41
0.1905
 75
     8
  0
VERTEX
  8
BOTTOMLAYER
  5
20C
 10
-3.07975
 20
-3.048
 30
0.0
 42
1.0
  0
VERTEX
  8
BOTTOMLAYER
  5
20D
 10
-2.00025
 20
-3.048
 30
0.0
 42
1.0
  0
SEQEND
  8
0
  5
20E
  0
POLYLINE
  8
BOTTOMLAYER
  5
20F
 66
     1
 10
0.0
 20
0.0
 30
0.0
 40
0.1905
 41
0.1905
 75
     8
  0
VERTEX
  8
BOTTOMLAYER
  5
210
 10
-2.794
 20
-2.50825
 30
0.0
  0
VERTEX
  8
BOTTOMLAYER
  5
211
 10
-2.286
 20
-2.50825
 30
0.0
  0
SEQEND
  8
0
  5
212
  0
POLYLINE
  8
BOTTOMLAYER
  5
213
 66
     1
 10
0.0
 20
0.0
 30
0.0
 40
0.1905
 41
0.1905
 75
     8
  0
VERTEX
  8
BOTTOMLAYER
  5
214
 10
-2.794
 20
-3.58775
 30
0.0
  0
VERTEX
  8
BOTTOMLAYER
  5
215
 10
-2.286
 20
-3.58775
 30
0.0
  0
SEQEND
  8
0
  5
216
  0
POLYLINE
  8
BOTTOMLAYER
  5
217
 66
     1
 10
0.0
 20
0.0
 30
0.0
 40
0.1905
 41
0.1905
 75
     8
  0
VERTEX
  8
BOTTOMLAYER
  5
218
 10
-2.794
 20
-3.58775
 30
0.0
 42
-1.0
  0
VERTEX
  8
BOTTOMLAYER
  5
219
 10
-2.794
 20
-2.50825
 30
0.0
  0
SEQEND
  8
0
  5
21A
  0
POLYLINE
  8
BOTTOMLAYER
  5
21B
 66
     1
 10
0.0
 20
0.0
 30
0.0
 40
0.1905
 41
0.1905
 75
     8
  0
VERTEX
  8
BOTTOMLAYER
  5
21C
 10
-2.286
 20
-2.50825
 30
0.0
 42
-1.0
  0
VERTEX
  8
BOTTOMLAYER
  5
21D
 10
-2.286
 20
-3.58775
 30
0.0
  0
SEQEND
  8
0
  5
21E
  0
POLYLINE
  8
TOPSOLDER
  5
21F
 66
     1
 10
0.0
 20
0.0
 30
0.0
 70
     1
 40
0.2413
 41
0.2413
 75
     8
  0
VERTEX
  8
TOPSOLDER
  5
220
 10
-3.10515
 20
-3.048
 30
0.0
 42
1.0
  0
VERTEX
  8
TOPSOLDER
  5
221
 10
-1.97485
 20
-3.048
 30
0.0
 42
1.0
  0
SEQEND
  8
0
  5
222
  0
POLYLINE
  8
TOPSOLDER
  5
223
 66
     1
 10
0.0
 20
0.0
 30
0.0
 40
0.2413
 41
0.2413
 75
     8
  0
VERTEX
  8
TOPSOLDER
  5
224
 10
-2.794
 20
-2.48285
 30
0.0
  0
VERTEX
  8
TOPSOLDER
  5
225
 10
-2.286
 20
-2.48285
 30
0.0
  0
SEQEND
  8
0
  5
226
  0
POLYLINE
  8
TOPSOLDER
  5
227
 66
     1
 10
0.0
 20
0.0
 30
0.0
 40
0.2413
 41
0.2413
 75
     8
  0
VERTEX
  8
TOPSOLDER
  5
228
 10
-2.794
 20
-3.61315
 30
0.0
  0
VERTEX
  8
TOPSOLDER
  5
229
 10
-2.286
 20
-3.61315
 30
0.0
  0
SEQEND
  8
0
  5
22A
  0
POLYLINE
  8
TOPSOLDER
  5
22B
 66
     1
 10
0.0
 20
0.0
 30
0.0
 40
0.2413
 41
0.2413
 75
     8
  0
VERTEX
  8
TOPSOLDER
  5
22C
 10
-2.794
 20
-3.61315
 30
0.0
 42
-1.0
  0
VERTEX
  8
TOPSOLDER
  5
22D
 10
-2.794
 20
-2.48285
 30
0.0
  0
SEQEND
  8
0
  5
22E
  0
POLYLINE
  8
TOPSOLDER
  5
22F
 66
     1
 10
0.0
 20
0.0
 30
0.0
 40
0.2413
 41
0.2413
 75
     8
  0
VERTEX
  8
TOPSOLDER
  5
230
 10
-2.286
 20
-2.48285
 30
0.0
 42
-1.0
  0
VERTEX
  8
TOPSOLDER
  5
231
 10
-2.286
 20
-3.61315
 30
0.0
  0
SEQEND
  8
0
  5
232
  0
POLYLINE
  8
BOTTOMSOLDER
  5
233
 66
     1
 10
0.0
 20
0.0
 30
0.0
 70
     1
 40
0.2413
 41
0.2413
 75
     8
  0
VERTEX
  8
BOTTOMSOLDER
  5
234
 10
-3.10515
 20
-3.048
 30
0.0
 42
1.0
  0
VERTEX
  8
BOTTOMSOLDER
  5
235
 10
-1.97485
 20
-3.048
 30
0.0
 42
1.0
  0
SEQEND
  8
0
  5
236
  0
POLYLINE
  8
BOTTOMSOLDER
  5
237
 66
     1
 10
0.0
 20
0.0
 30
0.0
 40
0.2413
 41
0.2413
 75
     8
  0
VERTEX
  8
BOTTOMSOLDER
  5
238
 10
-2.794
 20
-2.48285
 30
0.0
  0
VERTEX
  8
BOTTOMSOLDER
  5
239
 10
-2.286
 20
-2.48285
 30
0.0
  0
SEQEND
  8
0
  5
23A
  0
POLYLINE
  8
BOTTOMSOLDER
  5
23B
 66
     1
 10
0.0
 20
0.0
 30
0.0
 40
0.2413
 41
0.2413
 75
     8
  0
VERTEX
  8
BOTTOMSOLDER
  5
23C
 10
-2.794
 20
-3.61315
 30
0.0
  0
VERTEX
  8
BOTTOMSOLDER
  5
23D
 10
-2.286
 20
-3.61315
 30
0.0
  0
SEQEND
  8
0
  5
23E
  0
POLYLINE
  8
BOTTOMSOLDER
  5
23F
 66
     1
 10
0.0
 20
0.0
 30
0.0
 40
0.2413
 41
0.2413
 75
     8
  0
VERTEX
  8
BOTTOMSOLDER
  5
240
 10
-2.794
 20
-3.61315
 30
0.0
 42
-1.0
  0
VERTEX
  8
BOTTOMSOLDER
  5
241
 10
-2.794
 20
-2.48285
 30
0.0
  0
SEQEND
  8
0
  5
242
  0
POLYLINE
  8
BOTTOMSOLDER
  5
243
 66
     1
 10
0.0
 20
0.0
 30
0.0
 40
0.2413
 41
0.2413
 75
     8
  0
VERTEX
  8
BOTTOMSOLDER
  5
244
 10
-2.286
 20
-2.48285
 30
0.0
 42
-1.0
  0
VERTEX
  8
BOTTOMSOLDER
  5
245
 10
-2.286
 20
-3.61315
 30
0.0
  0
SEQEND
  8
0
  5
246
  0
POLYLINE
  8
MULTILAYER
  5
247
 66
     1
 10
0.0
 20
0.0
 30
0.0
 70
     1
 40
0.1905
 41
0.1905
 75
     8
  0
VERTEX
  8
MULTILAYER
  5
248
 10
-3.07975
 20
-3.048
 30
0.0
 42
1.0
  0
VERTEX
  8
MULTILAYER
  5
249
 10
-2.00025
 20
-3.048
 30
0.0
 42
1.0
  0
SEQEND
  8
0
  5
24A
  0
POLYLINE
  8
MULTILAYER
  5
24B
 66
     1
 10
0.0
 20
0.0
 30
0.0
 40
0.1905
 41
0.1905
 75
     8
  0
VERTEX
  8
MULTILAYER
  5
24C
 10
-2.794
 20
-2.50825
 30
0.0
  0
VERTEX
  8
MULTILAYER
  5
24D
 10
-2.286
 20
-2.50825
 30
0.0
  0
SEQEND
  8
0
  5
24E
  0
POLYLINE
  8
MULTILAYER
  5
24F
 66
     1
 10
0.0
 20
0.0
 30
0.0
 40
0.1905
 41
0.1905
 75
     8
  0
VERTEX
  8
MULTILAYER
  5
250
 10
-2.794
 20
-3.58775
 30
0.0
  0
VERTEX
  8
MULTILAYER
  5
251
 10
-2.286
 20
-3.58775
 30
0.0
  0
SEQEND
  8
0
  5
252
  0
POLYLINE
  8
MULTILAYER
  5
253
 66
     1
 10
0.0
 20
0.0
 30
0.0
 40
0.1905
 41
0.1905
 75
     8
  0
VERTEX
  8
MULTILAYER
  5
254
 10
-2.794
 20
-3.58775
 30
0.0
 42
-1.0
  0
VERTEX
  8
MULTILAYER
  5
255
 10
-2.794
 20
-2.50825
 30
0.0
  0
SEQEND
  8
0
  5
256
  0
POLYLINE
  8
MULTILAYER
  5
257
 66
     1
 10
0.0
 20
0.0
 30
0.0
 40
0.1905
 41
0.1905
 75
     8
  0
VERTEX
  8
MULTILAYER
  5
258
 10
-2.286
 20
-2.50825
 30
0.0
 42
-1.0
  0
VERTEX
  8
MULTILAYER
  5
259
 10
-2.286
 20
-3.58775
 30
0.0
  0
SEQEND
  8
0
  5
25A
  0
POLYLINE
  8
TOPLAYER
  5
25B
 66
     1
 10
0.0
 20
0.0
 30
0.0
 70
     1
 40
0.1905
 41
0.1905
 75
     8
  0
VERTEX
  8
TOPLAYER
  5
25C
 10
-3.07975
 20
-7.112
 30
0.0
 42
1.0
  0
VERTEX
  8
TOPLAYER
  5
25D
 10
-2.00025
 20
-7.112
 30
0.0
 42
1.0
  0
SEQEND
  8
0
  5
25E
  0
POLYLINE
  8
TOPLAYER
  5
25F
 66
     1
 10
0.0
 20
0.0
 30
0.0
 40
0.1905
 41
0.1905
 75
     8
  0
VERTEX
  8
TOPLAYER
  5
260
 10
-2.794
 20
-6.57225
 30
0.0
  0
VERTEX
  8
TOPLAYER
  5
261
 10
-2.286
 20
-6.57225
 30
0.0
  0
SEQEND
  8
0
  5
262
  0
POLYLINE
  8
TOPLAYER
  5
263
 66
     1
 10
0.0
 20
0.0
 30
0.0
 40
0.1905
 41
0.1905
 75
     8
  0
VERTEX
  8
TOPLAYER
  5
264
 10
-2.794
 20
-7.65175
 30
0.0
  0
VERTEX
  8
TOPLAYER
  5
265
 10
-2.286
 20
-7.65175
 30
0.0
  0
SEQEND
  8
0
  5
266
  0
POLYLINE
  8
TOPLAYER
  5
267
 66
     1
 10
0.0
 20
0.0
 30
0.0
 40
0.1905
 41
0.1905
 75
     8
  0
VERTEX
  8
TOPLAYER
  5
268
 10
-2.794
 20
-7.65175
 30
0.0
 42
-1.0
  0
VERTEX
  8
TOPLAYER
  5
269
 10
-2.794
 20
-6.57225
 30
0.0
  0
SEQEND
  8
0
  5
26A
  0
POLYLINE
  8
TOPLAYER
  5
26B
 66
     1
 10
0.0
 20
0.0
 30
0.0
 40
0.1905
 41
0.1905
 75
     8
  0
VERTEX
  8
TOPLAYER
  5
26C
 10
-2.286
 20
-6.57225
 30
0.0
 42
-1.0
  0
VERTEX
  8
TOPLAYER
  5
26D
 10
-2.286
 20
-7.65175
 30
0.0
  0
SEQEND
  8
0
  5
26E
  0
POLYLINE
  8
BOTTOMLAYER
  5
26F
 66
     1
 10
0.0
 20
0.0
 30
0.0
 70
     1
 40
0.1905
 41
0.1905
 75
     8
  0
VERTEX
  8
BOTTOMLAYER
  5
270
 10
-3.07975
 20
-7.112
 30
0.0
 42
1.0
  0
VERTEX
  8
BOTTOMLAYER
  5
271
 10
-2.00025
 20
-7.112
 30
0.0
 42
1.0
  0
SEQEND
  8
0
  5
272
  0
POLYLINE
  8
BOTTOMLAYER
  5
273
 66
     1
 10
0.0
 20
0.0
 30
0.0
 40
0.1905
 41
0.1905
 75
     8
  0
VERTEX
  8
BOTTOMLAYER
  5
274
 10
-2.794
 20
-6.57225
 30
0.0
  0
VERTEX
  8
BOTTOMLAYER
  5
275
 10
-2.286
 20
-6.57225
 30
0.0
  0
SEQEND
  8
0
  5
276
  0
POLYLINE
  8
BOTTOMLAYER
  5
277
 66
     1
 10
0.0
 20
0.0
 30
0.0
 40
0.1905
 41
0.1905
 75
     8
  0
VERTEX
  8
BOTTOMLAYER
  5
278
 10
-2.794
 20
-7.65175
 30
0.0
  0
VERTEX
  8
BOTTOMLAYER
  5
279
 10
-2.286
 20
-7.65175
 30
0.0
  0
SEQEND
  8
0
  5
27A
  0
POLYLINE
  8
BOTTOMLAYER
  5
27B
 66
     1
 10
0.0
 20
0.0
 30
0.0
 40
0.1905
 41
0.1905
 75
     8
  0
VERTEX
  8
BOTTOMLAYER
  5
27C
 10
-2.794
 20
-7.65175
 30
0.0
 42
-1.0
  0
VERTEX
  8
BOTTOMLAYER
  5
27D
 10
-2.794
 20
-6.57225
 30
0.0
  0
SEQEND
  8
0
  5
27E
  0
POLYLINE
  8
BOTTOMLAYER
  5
27F
 66
     1
 10
0.0
 20
0.0
 30
0.0
 40
0.1905
 41
0.1905
 75
     8
  0
VERTEX
  8
BOTTOMLAYER
  5
280
 10
-2.286
 20
-6.57225
 30
0.0
 42
-1.0
  0
VERTEX
  8
BOTTOMLAYER
  5
281
 10
-2.286
 20
-7.65175
 30
0.0
  0
SEQEND
  8
0
  5
282
  0
POLYLINE
  8
TOPSOLDER
  5
283
 66
     1
 10
0.0
 20
0.0
 30
0.0
 70
     1
 40
0.2413
 41
0.2413
 75
     8
  0
VERTEX
  8
TOPSOLDER
  5
284
 10
-3.10515
 20
-7.112
 30
0.0
 42
1.0
  0
VERTEX
  8
TOPSOLDER
  5
285
 10
-1.97485
 20
-7.112
 30
0.0
 42
1.0
  0
SEQEND
  8
0
  5
286
  0
POLYLINE
  8
TOPSOLDER
  5
287
 66
     1
 10
0.0
 20
0.0
 30
0.0
 40
0.2413
 41
0.2413
 75
     8
  0
VERTEX
  8
TOPSOLDER
  5
288
 10
-2.794
 20
-6.54685
 30
0.0
  0
VERTEX
  8
TOPSOLDER
  5
289
 10
-2.286
 20
-6.54685
 30
0.0
  0
SEQEND
  8
0
  5
28A
  0
POLYLINE
  8
TOPSOLDER
  5
28B
 66
     1
 10
0.0
 20
0.0
 30
0.0
 40
0.2413
 41
0.2413
 75
     8
  0
VERTEX
  8
TOPSOLDER
  5
28C
 10
-2.794
 20
-7.67715
 30
0.0
  0
VERTEX
  8
TOPSOLDER
  5
28D
 10
-2.286
 20
-7.67715
 30
0.0
  0
SEQEND
  8
0
  5
28E
  0
POLYLINE
  8
TOPSOLDER
  5
28F
 66
     1
 10
0.0
 20
0.0
 30
0.0
 40
0.2413
 41
0.2413
 75
     8
  0
VERTEX
  8
TOPSOLDER
  5
290
 10
-2.794
 20
-7.67715
 30
0.0
 42
-1.0
  0
VERTEX
  8
TOPSOLDER
  5
291
 10
-2.794
 20
-6.54685
 30
0.0
  0
SEQEND
  8
0
  5
292
  0
POLYLINE
  8
TOPSOLDER
  5
293
 66
     1
 10
0.0
 20
0.0
 30
0.0
 40
0.2413
 41
0.2413
 75
     8
  0
VERTEX
  8
TOPSOLDER
  5
294
 10
-2.286
 20
-6.54685
 30
0.0
 42
-1.0
  0
VERTEX
  8
TOPSOLDER
  5
295
 10
-2.286
 20
-7.67715
 30
0.0
  0
SEQEND
  8
0
  5
296
  0
POLYLINE
  8
BOTTOMSOLDER
  5
297
 66
     1
 10
0.0
 20
0.0
 30
0.0
 70
     1
 40
0.2413
 41
0.2413
 75
     8
  0
VERTEX
  8
BOTTOMSOLDER
  5
298
 10
-3.10515
 20
-7.112
 30
0.0
 42
1.0
  0
VERTEX
  8
BOTTOMSOLDER
  5
299
 10
-1.97485
 20
-7.112
 30
0.0
 42
1.0
  0
SEQEND
  8
0
  5
29A
  0
POLYLINE
  8
BOTTOMSOLDER
  5
29B
 66
     1
 10
0.0
 20
0.0
 30
0.0
 40
0.2413
 41
0.2413
 75
     8
  0
VERTEX
  8
BOTTOMSOLDER
  5
29C
 10
-2.794
 20
-6.54685
 30
0.0
  0
VERTEX
  8
BOTTOMSOLDER
  5
29D
 10
-2.286
 20
-6.54685
 30
0.0
  0
SEQEND
  8
0
  5
29E
  0
POLYLINE
  8
BOTTOMSOLDER
  5
29F
 66
     1
 10
0.0
 20
0.0
 30
0.0
 40
0.2413
 41
0.2413
 75
     8
  0
VERTEX
  8
BOTTOMSOLDER
  5
2A0
 10
-2.794
 20
-7.67715
 30
0.0
  0
VERTEX
  8
BOTTOMSOLDER
  5
2A1
 10
-2.286
 20
-7.67715
 30
0.0
  0
SEQEND
  8
0
  5
2A2
  0
POLYLINE
  8
BOTTOMSOLDER
  5
2A3
 66
     1
 10
0.0
 20
0.0
 30
0.0
 40
0.2413
 41
0.2413
 75
     8
  0
VERTEX
  8
BOTTOMSOLDER
  5
2A4
 10
-2.794
 20
-7.67715
 30
0.0
 42
-1.0
  0
VERTEX
  8
BOTTOMSOLDER
  5
2A5
 10
-2.794
 20
-6.54685
 30
0.0
  0
SEQEND
  8
0
  5
2A6
  0
POLYLINE
  8
BOTTOMSOLDER
  5
2A7
 66
     1
 10
0.0
 20
0.0
 30
0.0
 40
0.2413
 41
0.2413
 75
     8
  0
VERTEX
  8
BOTTOMSOLDER
  5
2A8
 10
-2.286
 20
-6.54685
 30
0.0
 42
-1.0
  0
VERTEX
  8
BOTTOMSOLDER
  5
2A9
 10
-2.286
 20
-7.67715
 30
0.0
  0
SEQEND
  8
0
  5
2AA
  0
POLYLINE
  8
MULTILAYER
  5
2AB
 66
     1
 10
0.0
 20
0.0
 30
0.0
 70
     1
 40
0.1905
 41
0.1905
 75
     8
  0
VERTEX
  8
MULTILAYER
  5
2AC
 10
-3.07975
 20
-7.112
 30
0.0
 42
1.0
  0
VERTEX
  8
MULTILAYER
  5
2AD
 10
-2.00025
 20
-7.112
 30
0.0
 42
1.0
  0
SEQEND
  8
0
  5
2AE
  0
POLYLINE
  8
MULTILAYER
  5
2AF
 66
     1
 10
0.0
 20
0.0
 30
0.0
 40
0.1905
 41
0.1905
 75
     8
  0
VERTEX
  8
MULTILAYER
  5
2B0
 10
-2.794
 20
-6.57225
 30
0.0
  0
VERTEX
  8
MULTILAYER
  5
2B1
 10
-2.286
 20
-6.57225
 30
0.0
  0
SEQEND
  8
0
  5
2B2
  0
POLYLINE
  8
MULTILAYER
  5
2B3
 66
     1
 10
0.0
 20
0.0
 30
0.0
 40
0.1905
 41
0.1905
 75
     8
  0
VERTEX
  8
MULTILAYER
  5
2B4
 10
-2.794
 20
-7.65175
 30
0.0
  0
VERTEX
  8
MULTILAYER
  5
2B5
 10
-2.286
 20
-7.65175
 30
0.0
  0
SEQEND
  8
0
  5
2B6
  0
POLYLINE
  8
MULTILAYER
  5
2B7
 66
     1
 10
0.0
 20
0.0
 30
0.0
 40
0.1905
 41
0.1905
 75
     8
  0
VERTEX
  8
MULTILAYER
  5
2B8
 10
-2.794
 20
-7.65175
 30
0.0
 42
-1.0
  0
VERTEX
  8
MULTILAYER
  5
2B9
 10
-2.794
 20
-6.57225
 30
0.0
  0
SEQEND
  8
0
  5
2BA
  0
POLYLINE
  8
MULTILAYER
  5
2BB
 66
     1
 10
0.0
 20
0.0
 30
0.0
 40
0.1905
 41
0.1905
 75
     8
  0
VERTEX
  8
MULTILAYER
  5
2BC
 10
-2.286
 20
-6.57225
 30
0.0
 42
-1.0
  0
VERTEX
  8
MULTILAYER
  5
2BD
 10
-2.286
 20
-7.65175
 30
0.0
  0
SEQEND
  8
0
  5
2BE
  0
POLYLINE
  8
TOPLAYER
  5
2BF
 66
     1
 10
0.0
 20
0.0
 30
0.0
 70
     1
 40
0.1905
 41
0.1905
 75
     8
  0
VERTEX
  8
TOPLAYER
  5
2C0
 10
-3.07975
 20
-9.144
 30
0.0
 42
1.0
  0
VERTEX
  8
TOPLAYER
  5
2C1
 10
-2.00025
 20
-9.144
 30
0.0
 42
1.0
  0
SEQEND
  8
0
  5
2C2
  0
POLYLINE
  8
TOPLAYER
  5
2C3
 66
     1
 10
0.0
 20
0.0
 30
0.0
 40
0.1905
 41
0.1905
 75
     8
  0
VERTEX
  8
TOPLAYER
  5
2C4
 10
-2.794
 20
-8.60425
 30
0.0
  0
VERTEX
  8
TOPLAYER
  5
2C5
 10
-2.286
 20
-8.60425
 30
0.0
  0
SEQEND
  8
0
  5
2C6
  0
POLYLINE
  8
TOPLAYER
  5
2C7
 66
     1
 10
0.0
 20
0.0
 30
0.0
 40
0.1905
 41
0.1905
 75
     8
  0
VERTEX
  8
TOPLAYER
  5
2C8
 10
-2.794
 20
-9.68375
 30
0.0
  0
VERTEX
  8
TOPLAYER
  5
2C9
 10
-2.286
 20
-9.68375
 30
0.0
  0
SEQEND
  8
0
  5
2CA
  0
POLYLINE
  8
TOPLAYER
  5
2CB
 66
     1
 10
0.0
 20
0.0
 30
0.0
 40
0.1905
 41
0.1905
 75
     8
  0
VERTEX
  8
TOPLAYER
  5
2CC
 10
-2.794
 20
-9.68375
 30
0.0
 42
-1.0
  0
VERTEX
  8
TOPLAYER
  5
2CD
 10
-2.794
 20
-8.60425
 30
0.0
  0
SEQEND
  8
0
  5
2CE
  0
POLYLINE
  8
TOPLAYER
  5
2CF
 66
     1
 10
0.0
 20
0.0
 30
0.0
 40
0.1905
 41
0.1905
 75
     8
  0
VERTEX
  8
TOPLAYER
  5
2D0
 10
-2.286
 20
-8.60425
 30
0.0
 42
-1.0
  0
VERTEX
  8
TOPLAYER
  5
2D1
 10
-2.286
 20
-9.68375
 30
0.0
  0
SEQEND
  8
0
  5
2D2
  0
POLYLINE
  8
BOTTOMLAYER
  5
2D3
 66
     1
 10
0.0
 20
0.0
 30
0.0
 70
     1
 40
0.1905
 41
0.1905
 75
     8
  0
VERTEX
  8
BOTTOMLAYER
  5
2D4
 10
-3.07975
 20
-9.144
 30
0.0
 42
1.0
  0
VERTEX
  8
BOTTOMLAYER
  5
2D5
 10
-2.00025
 20
-9.144
 30
0.0
 42
1.0
  0
SEQEND
  8
0
  5
2D6
  0
POLYLINE
  8
BOTTOMLAYER
  5
2D7
 66
     1
 10
0.0
 20
0.0
 30
0.0
 40
0.1905
 41
0.1905
 75
     8
  0
VERTEX
  8
BOTTOMLAYER
  5
2D8
 10
-2.794
 20
-8.60425
 30
0.0
  0
VERTEX
  8
BOTTOMLAYER
  5
2D9
 10
-2.286
 20
-8.60425
 30
0.0
  0
SEQEND
  8
0
  5
2DA
  0
POLYLINE
  8
BOTTOMLAYER
  5
2DB
 66
     1
 10
0.0
 20
0.0
 30
0.0
 40
0.1905
 41
0.1905
 75
     8
  0
VERTEX
  8
BOTTOMLAYER
  5
2DC
 10
-2.794
 20
-9.68375
 30
0.0
  0
VERTEX
  8
BOTTOMLAYER
  5
2DD
 10
-2.286
 20
-9.68375
 30
0.0
  0
SEQEND
  8
0
  5
2DE
  0
POLYLINE
  8
BOTTOMLAYER
  5
2DF
 66
     1
 10
0.0
 20
0.0
 30
0.0
 40
0.1905
 41
0.1905
 75
     8
  0
VERTEX
  8
BOTTOMLAYER
  5
2E0
 10
-2.794
 20
-9.68375
 30
0.0
 42
-1.0
  0
VERTEX
  8
BOTTOMLAYER
  5
2E1
 10
-2.794
 20
-8.60425
 30
0.0
  0
SEQEND
  8
0
  5
2E2
  0
POLYLINE
  8
BOTTOMLAYER
  5
2E3
 66
     1
 10
0.0
 20
0.0
 30
0.0
 40
0.1905
 41
0.1905
 75
     8
  0
VERTEX
  8
BOTTOMLAYER
  5
2E4
 10
-2.286
 20
-8.60425
 30
0.0
 42
-1.0
  0
VERTEX
  8
BOTTOMLAYER
  5
2E5
 10
-2.286
 20
-9.68375
 30
0.0
  0
SEQEND
  8
0
  5
2E6
  0
POLYLINE
  8
TOPSOLDER
  5
2E7
 66
     1
 10
0.0
 20
0.0
 30
0.0
 70
     1
 40
0.2413
 41
0.2413
 75
     8
  0
VERTEX
  8
TOPSOLDER
  5
2E8
 10
-3.10515
 20
-9.144
 30
0.0
 42
1.0
  0
VERTEX
  8
TOPSOLDER
  5
2E9
 10
-1.97485
 20
-9.144
 30
0.0
 42
1.0
  0
SEQEND
  8
0
  5
2EA
  0
POLYLINE
  8
TOPSOLDER
  5
2EB
 66
     1
 10
0.0
 20
0.0
 30
0.0
 40
0.2413
 41
0.2413
 75
     8
  0
VERTEX
  8
TOPSOLDER
  5
2EC
 10
-2.794
 20
-8.57885
 30
0.0
  0
VERTEX
  8
TOPSOLDER
  5
2ED
 10
-2.286
 20
-8.57885
 30
0.0
  0
SEQEND
  8
0
  5
2EE
  0
POLYLINE
  8
TOPSOLDER
  5
2EF
 66
     1
 10
0.0
 20
0.0
 30
0.0
 40
0.2413
 41
0.2413
 75
     8
  0
VERTEX
  8
TOPSOLDER
  5
2F0
 10
-2.794
 20
-9.70915
 30
0.0
  0
VERTEX
  8
TOPSOLDER
  5
2F1
 10
-2.286
 20
-9.70915
 30
0.0
  0
SEQEND
  8
0
  5
2F2
  0
POLYLINE
  8
TOPSOLDER
  5
2F3
 66
     1
 10
0.0
 20
0.0
 30
0.0
 40
0.2413
 41
0.2413
 75
     8
  0
VERTEX
  8
TOPSOLDER
  5
2F4
 10
-2.794
 20
-9.70915
 30
0.0
 42
-1.0
  0
VERTEX
  8
TOPSOLDER
  5
2F5
 10
-2.794
 20
-8.57885
 30
0.0
  0
SEQEND
  8
0
  5
2F6
  0
POLYLINE
  8
TOPSOLDER
  5
2F7
 66
     1
 10
0.0
 20
0.0
 30
0.0
 40
0.2413
 41
0.2413
 75
     8
  0
VERTEX
  8
TOPSOLDER
  5
2F8
 10
-2.286
 20
-8.57885
 30
0.0
 42
-1.0
  0
VERTEX
  8
TOPSOLDER
  5
2F9
 10
-2.286
 20
-9.70915
 30
0.0
  0
SEQEND
  8
0
  5
2FA
  0
POLYLINE
  8
BOTTOMSOLDER
  5
2FB
 66
     1
 10
0.0
 20
0.0
 30
0.0
 70
     1
 40
0.2413
 41
0.2413
 75
     8
  0
VERTEX
  8
BOTTOMSOLDER
  5
2FC
 10
-3.10515
 20
-9.144
 30
0.0
 42
1.0
  0
VERTEX
  8
BOTTOMSOLDER
  5
2FD
 10
-1.97485
 20
-9.144
 30
0.0
 42
1.0
  0
SEQEND
  8
0
  5
2FE
  0
POLYLINE
  8
BOTTOMSOLDER
  5
2FF
 66
     1
 10
0.0
 20
0.0
 30
0.0
 40
0.2413
 41
0.2413
 75
     8
  0
VERTEX
  8
BOTTOMSOLDER
  5
300
 10
-2.794
 20
-8.57885
 30
0.0
  0
VERTEX
  8
BOTTOMSOLDER
  5
301
 10
-2.286
 20
-8.57885
 30
0.0
  0
SEQEND
  8
0
  5
302
  0
POLYLINE
  8
BOTTOMSOLDER
  5
303
 66
     1
 10
0.0
 20
0.0
 30
0.0
 40
0.2413
 41
0.2413
 75
     8
  0
VERTEX
  8
BOTTOMSOLDER
  5
304
 10
-2.794
 20
-9.70915
 30
0.0
  0
VERTEX
  8
BOTTOMSOLDER
  5
305
 10
-2.286
 20
-9.70915
 30
0.0
  0
SEQEND
  8
0
  5
306
  0
POLYLINE
  8
BOTTOMSOLDER
  5
307
 66
     1
 10
0.0
 20
0.0
 30
0.0
 40
0.2413
 41
0.2413
 75
     8
  0
VERTEX
  8
BOTTOMSOLDER
  5
308
 10
-2.794
 20
-9.70915
 30
0.0
 42
-1.0
  0
VERTEX
  8
BOTTOMSOLDER
  5
309
 10
-2.794
 20
-8.57885
 30
0.0
  0
SEQEND
  8
0
  5
30A
  0
POLYLINE
  8
BOTTOMSOLDER
  5
30B
 66
     1
 10
0.0
 20
0.0
 30
0.0
 40
0.2413
 41
0.2413
 75
     8
  0
VERTEX
  8
BOTTOMSOLDER
  5
30C
 10
-2.286
 20
-8.57885
 30
0.0
 42
-1.0
  0
VERTEX
  8
BOTTOMSOLDER
  5
30D
 10
-2.286
 20
-9.70915
 30
0.0
  0
SEQEND
  8
0
  5
30E
  0
POLYLINE
  8
MULTILAYER
  5
30F
 66
     1
 10
0.0
 20
0.0
 30
0.0
 70
     1
 40
0.1905
 41
0.1905
 75
     8
  0
VERTEX
  8
MULTILAYER
  5
310
 10
-3.07975
 20
-9.144
 30
0.0
 42
1.0
  0
VERTEX
  8
MULTILAYER
  5
311
 10
-2.00025
 20
-9.144
 30
0.0
 42
1.0
  0
SEQEND
  8
0
  5
312
  0
POLYLINE
  8
MULTILAYER
  5
313
 66
     1
 10
0.0
 20
0.0
 30
0.0
 40
0.1905
 41
0.1905
 75
     8
  0
VERTEX
  8
MULTILAYER
  5
314
 10
-2.794
 20
-8.60425
 30
0.0
  0
VERTEX
  8
MULTILAYER
  5
315
 10
-2.286
 20
-8.60425
 30
0.0
  0
SEQEND
  8
0
  5
316
  0
POLYLINE
  8
MULTILAYER
  5
317
 66
     1
 10
0.0
 20
0.0
 30
0.0
 40
0.1905
 41
0.1905
 75
     8
  0
VERTEX
  8
MULTILAYER
  5
318
 10
-2.794
 20
-9.68375
 30
0.0
  0
VERTEX
  8
MULTILAYER
  5
319
 10
-2.286
 20
-9.68375
 30
0.0
  0
SEQEND
  8
0
  5
31A
  0
POLYLINE
  8
MULTILAYER
  5
31B
 66
     1
 10
0.0
 20
0.0
 30
0.0
 40
0.1905
 41
0.1905
 75
     8
  0
VERTEX
  8
MULTILAYER
  5
31C
 10
-2.794
 20
-9.68375
 30
0.0
 42
-1.0
  0
VERTEX
  8
MULTILAYER
  5
31D
 10
-2.794
 20
-8.60425
 30
0.0
  0
SEQEND
  8
0
  5
31E
  0
POLYLINE
  8
MULTILAYER
  5
31F
 66
     1
 10
0.0
 20
0.0
 30
0.0
 40
0.1905
 41
0.1905
 75
     8
  0
VERTEX
  8
MULTILAYER
  5
320
 10
-2.286
 20
-8.60425
 30
0.0
 42
-1.0
  0
VERTEX
  8
MULTILAYER
  5
321
 10
-2.286
 20
-9.68375
 30
0.0
  0
SEQEND
  8
0
  5
322
  0
POLYLINE
  8
TOPLAYER
  5
323
 66
     1
 10
0.0
 20
0.0
 30
0.0
 70
     1
 40
0.1905
 41
0.1905
 75
     8
  0
VERTEX
  8
TOPLAYER
  5
324
 10
-3.07975
 20
-11.176
 30
0.0
 42
1.0
  0
VERTEX
  8
TOPLAYER
  5
325
 10
-2.00025
 20
-11.176
 30
0.0
 42
1.0
  0
SEQEND
  8
0
  5
326
  0
POLYLINE
  8
TOPLAYER
  5
327
 66
     1
 10
0.0
 20
0.0
 30
0.0
 40
0.1905
 41
0.1905
 75
     8
  0
VERTEX
  8
TOPLAYER
  5
328
 10
-2.794
 20
-10.63625
 30
0.0
  0
VERTEX
  8
TOPLAYER
  5
329
 10
-2.286
 20
-10.63625
 30
0.0
  0
SEQEND
  8
0
  5
32A
  0
POLYLINE
  8
TOPLAYER
  5
32B
 66
     1
 10
0.0
 20
0.0
 30
0.0
 40
0.1905
 41
0.1905
 75
     8
  0
VERTEX
  8
TOPLAYER
  5
32C
 10
-2.794
 20
-11.71575
 30
0.0
  0
VERTEX
  8
TOPLAYER
  5
32D
 10
-2.286
 20
-11.71575
 30
0.0
  0
SEQEND
  8
0
  5
32E
  0
POLYLINE
  8
TOPLAYER
  5
32F
 66
     1
 10
0.0
 20
0.0
 30
0.0
 40
0.1905
 41
0.1905
 75
     8
  0
VERTEX
  8
TOPLAYER
  5
330
 10
-2.794
 20
-11.71575
 30
0.0
 42
-1.0
  0
VERTEX
  8
TOPLAYER
  5
331
 10
-2.794
 20
-10.63625
 30
0.0
  0
SEQEND
  8
0
  5
332
  0
POLYLINE
  8
TOPLAYER
  5
333
 66
     1
 10
0.0
 20
0.0
 30
0.0
 40
0.1905
 41
0.1905
 75
     8
  0
VERTEX
  8
TOPLAYER
  5
334
 10
-2.286
 20
-10.63625
 30
0.0
 42
-1.0
  0
VERTEX
  8
TOPLAYER
  5
335
 10
-2.286
 20
-11.71575
 30
0.0
  0
SEQEND
  8
0
  5
336
  0
POLYLINE
  8
BOTTOMLAYER
  5
337
 66
     1
 10
0.0
 20
0.0
 30
0.0
 70
     1
 40
0.1905
 41
0.1905
 75
     8
  0
VERTEX
  8
BOTTOMLAYER
  5
338
 10
-3.07975
 20
-11.176
 30
0.0
 42
1.0
  0
VERTEX
  8
BOTTOMLAYER
  5
339
 10
-2.00025
 20
-11.176
 30
0.0
 42
1.0
  0
SEQEND
  8
0
  5
33A
  0
POLYLINE
  8
BOTTOMLAYER
  5
33B
 66
     1
 10
0.0
 20
0.0
 30
0.0
 40
0.1905
 41
0.1905
 75
     8
  0
VERTEX
  8
BOTTOMLAYER
  5
33C
 10
-2.794
 20
-10.63625
 30
0.0
  0
VERTEX
  8
BOTTOMLAYER
  5
33D
 10
-2.286
 20
-10.63625
 30
0.0
  0
SEQEND
  8
0
  5
33E
  0
POLYLINE
  8
BOTTOMLAYER
  5
33F
 66
     1
 10
0.0
 20
0.0
 30
0.0
 40
0.1905
 41
0.1905
 75
     8
  0
VERTEX
  8
BOTTOMLAYER
  5
340
 10
-2.794
 20
-11.71575
 30
0.0
  0
VERTEX
  8
BOTTOMLAYER
  5
341
 10
-2.286
 20
-11.71575
 30
0.0
  0
SEQEND
  8
0
  5
342
  0
POLYLINE
  8
BOTTOMLAYER
  5
343
 66
     1
 10
0.0
 20
0.0
 30
0.0
 40
0.1905
 41
0.1905
 75
     8
  0
VERTEX
  8
BOTTOMLAYER
  5
344
 10
-2.794
 20
-11.71575
 30
0.0
 42
-1.0
  0
VERTEX
  8
BOTTOMLAYER
  5
345
 10
-2.794
 20
-10.63625
 30
0.0
  0
SEQEND
  8
0
  5
346
  0
POLYLINE
  8
BOTTOMLAYER
  5
347
 66
     1
 10
0.0
 20
0.0
 30
0.0
 40
0.1905
 41
0.1905
 75
     8
  0
VERTEX
  8
BOTTOMLAYER
  5
348
 10
-2.286
 20
-10.63625
 30
0.0
 42
-1.0
  0
VERTEX
  8
BOTTOMLAYER
  5
349
 10
-2.286
 20
-11.71575
 30
0.0
  0
SEQEND
  8
0
  5
34A
  0
POLYLINE
  8
TOPSOLDER
  5
34B
 66
     1
 10
0.0
 20
0.0
 30
0.0
 70
     1
 40
0.2413
 41
0.2413
 75
     8
  0
VERTEX
  8
TOPSOLDER
  5
34C
 10
-3.10515
 20
-11.176
 30
0.0
 42
1.0
  0
VERTEX
  8
TOPSOLDER
  5
34D
 10
-1.97485
 20
-11.176
 30
0.0
 42
1.0
  0
SEQEND
  8
0
  5
34E
  0
POLYLINE
  8
TOPSOLDER
  5
34F
 66
     1
 10
0.0
 20
0.0
 30
0.0
 40
0.2413
 41
0.2413
 75
     8
  0
VERTEX
  8
TOPSOLDER
  5
350
 10
-2.794
 20
-10.61085
 30
0.0
  0
VERTEX
  8
TOPSOLDER
  5
351
 10
-2.286
 20
-10.61085
 30
0.0
  0
SEQEND
  8
0
  5
352
  0
POLYLINE
  8
TOPSOLDER
  5
353
 66
     1
 10
0.0
 20
0.0
 30
0.0
 40
0.2413
 41
0.2413
 75
     8
  0
VERTEX
  8
TOPSOLDER
  5
354
 10
-2.794
 20
-11.74115
 30
0.0
  0
VERTEX
  8
TOPSOLDER
  5
355
 10
-2.286
 20
-11.74115
 30
0.0
  0
SEQEND
  8
0
  5
356
  0
POLYLINE
  8
TOPSOLDER
  5
357
 66
     1
 10
0.0
 20
0.0
 30
0.0
 40
0.2413
 41
0.2413
 75
     8
  0
VERTEX
  8
TOPSOLDER
  5
358
 10
-2.794
 20
-11.74115
 30
0.0
 42
-1.0
  0
VERTEX
  8
TOPSOLDER
  5
359
 10
-2.794
 20
-10.61085
 30
0.0
  0
SEQEND
  8
0
  5
35A
  0
POLYLINE
  8
TOPSOLDER
  5
35B
 66
     1
 10
0.0
 20
0.0
 30
0.0
 40
0.2413
 41
0.2413
 75
     8
  0
VERTEX
  8
TOPSOLDER
  5
35C
 10
-2.286
 20
-10.61085
 30
0.0
 42
-1.0
  0
VERTEX
  8
TOPSOLDER
  5
35D
 10
-2.286
 20
-11.74115
 30
0.0
  0
SEQEND
  8
0
  5
35E
  0
POLYLINE
  8
BOTTOMSOLDER
  5
35F
 66
     1
 10
0.0
 20
0.0
 30
0.0
 70
     1
 40
0.2413
 41
0.2413
 75
     8
  0
VERTEX
  8
BOTTOMSOLDER
  5
360
 10
-3.10515
 20
-11.176
 30
0.0
 42
1.0
  0
VERTEX
  8
BOTTOMSOLDER
  5
361
 10
-1.97485
 20
-11.176
 30
0.0
 42
1.0
  0
SEQEND
  8
0
  5
362
  0
POLYLINE
  8
BOTTOMSOLDER
  5
363
 66
     1
 10
0.0
 20
0.0
 30
0.0
 40
0.2413
 41
0.2413
 75
     8
  0
VERTEX
  8
BOTTOMSOLDER
  5
364
 10
-2.794
 20
-10.61085
 30
0.0
  0
VERTEX
  8
BOTTOMSOLDER
  5
365
 10
-2.286
 20
-10.61085
 30
0.0
  0
SEQEND
  8
0
  5
366
  0
POLYLINE
  8
BOTTOMSOLDER
  5
367
 66
     1
 10
0.0
 20
0.0
 30
0.0
 40
0.2413
 41
0.2413
 75
     8
  0
VERTEX
  8
BOTTOMSOLDER
  5
368
 10
-2.794
 20
-11.74115
 30
0.0
  0
VERTEX
  8
BOTTOMSOLDER
  5
369
 10
-2.286
 20
-11.74115
 30
0.0
  0
SEQEND
  8
0
  5
36A
  0
POLYLINE
  8
BOTTOMSOLDER
  5
36B
 66
     1
 10
0.0
 20
0.0
 30
0.0
 40
0.2413
 41
0.2413
 75
     8
  0
VERTEX
  8
BOTTOMSOLDER
  5
36C
 10
-2.794
 20
-11.74115
 30
0.0
 42
-1.0
  0
VERTEX
  8
BOTTOMSOLDER
  5
36D
 10
-2.794
 20
-10.61085
 30
0.0
  0
SEQEND
  8
0
  5
36E
  0
POLYLINE
  8
BOTTOMSOLDER
  5
36F
 66
     1
 10
0.0
 20
0.0
 30
0.0
 40
0.2413
 41
0.2413
 75
     8
  0
VERTEX
  8
BOTTOMSOLDER
  5
370
 10
-2.286
 20
-10.61085
 30
0.0
 42
-1.0
  0
VERTEX
  8
BOTTOMSOLDER
  5
371
 10
-2.286
 20
-11.74115
 30
0.0
  0
SEQEND
  8
0
  5
372
  0
POLYLINE
  8
MULTILAYER
  5
373
 66
     1
 10
0.0
 20
0.0
 30
0.0
 70
     1
 40
0.1905
 41
0.1905
 75
     8
  0
VERTEX
  8
MULTILAYER
  5
374
 10
-3.07975
 20
-11.176
 30
0.0
 42
1.0
  0
VERTEX
  8
MULTILAYER
  5
375
 10
-2.00025
 20
-11.176
 30
0.0
 42
1.0
  0
SEQEND
  8
0
  5
376
  0
POLYLINE
  8
MULTILAYER
  5
377
 66
     1
 10
0.0
 20
0.0
 30
0.0
 40
0.1905
 41
0.1905
 75
     8
  0
VERTEX
  8
MULTILAYER
  5
378
 10
-2.794
 20
-10.63625
 30
0.0
  0
VERTEX
  8
MULTILAYER
  5
379
 10
-2.286
 20
-10.63625
 30
0.0
  0
SEQEND
  8
0
  5
37A
  0
POLYLINE
  8
MULTILAYER
  5
37B
 66
     1
 10
0.0
 20
0.0
 30
0.0
 40
0.1905
 41
0.1905
 75
     8
  0
VERTEX
  8
MULTILAYER
  5
37C
 10
-2.794
 20
-11.71575
 30
0.0
  0
VERTEX
  8
MULTILAYER
  5
37D
 10
-2.286
 20
-11.71575
 30
0.0
  0
SEQEND
  8
0
  5
37E
  0
POLYLINE
  8
MULTILAYER
  5
37F
 66
     1
 10
0.0
 20
0.0
 30
0.0
 40
0.1905
 41
0.1905
 75
     8
  0
VERTEX
  8
MULTILAYER
  5
380
 10
-2.794
 20
-11.71575
 30
0.0
 42
-1.0
  0
VERTEX
  8
MULTILAYER
  5
381
 10
-2.794
 20
-10.63625
 30
0.0
  0
SEQEND
  8
0
  5
382
  0
POLYLINE
  8
MULTILAYER
  5
383
 66
     1
 10
0.0
 20
0.0
 30
0.0
 40
0.1905
 41
0.1905
 75
     8
  0
VERTEX
  8
MULTILAYER
  5
384
 10
-2.286
 20
-10.63625
 30
0.0
 42
-1.0
  0
VERTEX
  8
MULTILAYER
  5
385
 10
-2.286
 20
-11.71575
 30
0.0
  0
SEQEND
  8
0
  5
386
  0
POLYLINE
  8
TOPLAYER
  5
387
 66
     1
 10
0.0
 20
0.0
 30
0.0
 70
     1
 40
0.1905
 41
0.1905
 75
     8
  0
VERTEX
  8
TOPLAYER
  5
388
 10
-0.53975
 20
-10.16
 30
0.0
 42
1.0
  0
VERTEX
  8
TOPLAYER
  5
389
 10
0.53975
 20
-10.16
 30
0.0
 42
1.0
  0
SEQEND
  8
0
  5
38A
  0
POLYLINE
  8
TOPLAYER
  5
38B
 66
     1
 10
0.0
 20
0.0
 30
0.0
 40
0.1905
 41
0.1905
 75
     8
  0
VERTEX
  8
TOPLAYER
  5
38C
 10
-0.254
 20
-9.62025
 30
0.0
  0
VERTEX
  8
TOPLAYER
  5
38D
 10
0.254
 20
-9.62025
 30
0.0
  0
SEQEND
  8
0
  5
38E
  0
POLYLINE
  8
TOPLAYER
  5
38F
 66
     1
 10
0.0
 20
0.0
 30
0.0
 40
0.1905
 41
0.1905
 75
     8
  0
VERTEX
  8
TOPLAYER
  5
390
 10
-0.254
 20
-10.69975
 30
0.0
  0
VERTEX
  8
TOPLAYER
  5
391
 10
0.254
 20
-10.69975
 30
0.0
  0
SEQEND
  8
0
  5
392
  0
POLYLINE
  8
TOPLAYER
  5
393
 66
     1
 10
0.0
 20
0.0
 30
0.0
 40
0.1905
 41
0.1905
 75
     8
  0
VERTEX
  8
TOPLAYER
  5
394
 10
-0.254
 20
-10.69975
 30
0.0
 42
-1.0
  0
VERTEX
  8
TOPLAYER
  5
395
 10
-0.254
 20
-9.62025
 30
0.0
  0
SEQEND
  8
0
  5
396
  0
POLYLINE
  8
TOPLAYER
  5
397
 66
     1
 10
0.0
 20
0.0
 30
0.0
 40
0.1905
 41
0.1905
 75
     8
  0
VERTEX
  8
TOPLAYER
  5
398
 10
0.254
 20
-9.62025
 30
0.0
 42
-1.0
  0
VERTEX
  8
TOPLAYER
  5
399
 10
0.254
 20
-10.69975
 30
0.0
  0
SEQEND
  8
0
  5
39A
  0
POLYLINE
  8
BOTTOMLAYER
  5
39B
 66
     1
 10
0.0
 20
0.0
 30
0.0
 70
     1
 40
0.1905
 41
0.1905
 75
     8
  0
VERTEX
  8
BOTTOMLAYER
  5
39C
 10
-0.53975
 20
-10.16
 30
0.0
 42
1.0
  0
VERTEX
  8
BOTTOMLAYER
  5
39D
 10
0.53975
 20
-10.16
 30
0.0
 42
1.0
  0
SEQEND
  8
0
  5
39E
  0
POLYLINE
  8
BOTTOMLAYER
  5
39F
 66
     1
 10
0.0
 20
0.0
 30
0.0
 40
0.1905
 41
0.1905
 75
     8
  0
VERTEX
  8
BOTTOMLAYER
  5
3A0
 10
-0.254
 20
-9.62025
 30
0.0
  0
VERTEX
  8
BOTTOMLAYER
  5
3A1
 10
0.254
 20
-9.62025
 30
0.0
  0
SEQEND
  8
0
  5
3A2
  0
POLYLINE
  8
BOTTOMLAYER
  5
3A3
 66
     1
 10
0.0
 20
0.0
 30
0.0
 40
0.1905
 41
0.1905
 75
     8
  0
VERTEX
  8
BOTTOMLAYER
  5
3A4
 10
-0.254
 20
-10.69975
 30
0.0
  0
VERTEX
  8
BOTTOMLAYER
  5
3A5
 10
0.254
 20
-10.69975
 30
0.0
  0
SEQEND
  8
0
  5
3A6
  0
POLYLINE
  8
BOTTOMLAYER
  5
3A7
 66
     1
 10
0.0
 20
0.0
 30
0.0
 40
0.1905
 41
0.1905
 75
     8
  0
VERTEX
  8
BOTTOMLAYER
  5
3A8
 10
-0.254
 20
-10.69975
 30
0.0
 42
-1.0
  0
VERTEX
  8
BOTTOMLAYER
  5
3A9
 10
-0.254
 20
-9.62025
 30
0.0
  0
SEQEND
  8
0
  5
3AA
  0
POLYLINE
  8
BOTTOMLAYER
  5
3AB
 66
     1
 10
0.0
 20
0.0
 30
0.0
 40
0.1905
 41
0.1905
 75
     8
  0
VERTEX
  8
BOTTOMLAYER
  5
3AC
 10
0.254
 20
-9.62025
 30
0.0
 42
-1.0
  0
VERTEX
  8
BOTTOMLAYER
  5
3AD
 10
0.254
 20
-10.69975
 30
0.0
  0
SEQEND
  8
0
  5
3AE
  0
POLYLINE
  8
TOPSOLDER
  5
3AF
 66
     1
 10
0.0
 20
0.0
 30
0.0
 70
     1
 40
0.2413
 41
0.2413
 75
     8
  0
VERTEX
  8
TOPSOLDER
  5
3B0
 10
-0.56515
 20
-10.16
 30
0.0
 42
1.0
  0
VERTEX
  8
TOPSOLDER
  5
3B1
 10
0.56515
 20
-10.16
 30
0.0
 42
1.0
  0
SEQEND
  8
0
  5
3B2
  0
POLYLINE
  8
TOPSOLDER
  5
3B3
 66
     1
 10
0.0
 20
0.0
 30
0.0
 40
0.2413
 41
0.2413
 75
     8
  0
VERTEX
  8
TOPSOLDER
  5
3B4
 10
-0.254
 20
-9.59485
 30
0.0
  0
VERTEX
  8
TOPSOLDER
  5
3B5
 10
0.254
 20
-9.59485
 30
0.0
  0
SEQEND
  8
0
  5
3B6
  0
POLYLINE
  8
TOPSOLDER
  5
3B7
 66
     1
 10
0.0
 20
0.0
 30
0.0
 40
0.2413
 41
0.2413
 75
     8
  0
VERTEX
  8
TOPSOLDER
  5
3B8
 10
-0.254
 20
-10.72515
 30
0.0
  0
VERTEX
  8
TOPSOLDER
  5
3B9
 10
0.254
 20
-10.72515
 30
0.0
  0
SEQEND
  8
0
  5
3BA
  0
POLYLINE
  8
TOPSOLDER
  5
3BB
 66
     1
 10
0.0
 20
0.0
 30
0.0
 40
0.2413
 41
0.2413
 75
     8
  0
VERTEX
  8
TOPSOLDER
  5
3BC
 10
-0.254
 20
-10.72515
 30
0.0
 42
-1.0
  0
VERTEX
  8
TOPSOLDER
  5
3BD
 10
-0.254
 20
-9.59485
 30
0.0
  0
SEQEND
  8
0
  5
3BE
  0
POLYLINE
  8
TOPSOLDER
  5
3BF
 66
     1
 10
0.0
 20
0.0
 30
0.0
 40
0.2413
 41
0.2413
 75
     8
  0
VERTEX
  8
TOPSOLDER
  5
3C0
 10
0.254
 20
-9.59485
 30
0.0
 42
-1.0
  0
VERTEX
  8
TOPSOLDER
  5
3C1
 10
0.254
 20
-10.72515
 30
0.0
  0
SEQEND
  8
0
  5
3C2
  0
POLYLINE
  8
BOTTOMSOLDER
  5
3C3
 66
     1
 10
0.0
 20
0.0
 30
0.0
 70
     1
 40
0.2413
 41
0.2413
 75
     8
  0
VERTEX
  8
BOTTOMSOLDER
  5
3C4
 10
-0.56515
 20
-10.16
 30
0.0
 42
1.0
  0
VERTEX
  8
BOTTOMSOLDER
  5
3C5
 10
0.56515
 20
-10.16
 30
0.0
 42
1.0
  0
SEQEND
  8
0
  5
3C6
  0
POLYLINE
  8
BOTTOMSOLDER
  5
3C7
 66
     1
 10
0.0
 20
0.0
 30
0.0
 40
0.2413
 41
0.2413
 75
     8
  0
VERTEX
  8
BOTTOMSOLDER
  5
3C8
 10
-0.254
 20
-9.59485
 30
0.0
  0
VERTEX
  8
BOTTOMSOLDER
  5
3C9
 10
0.254
 20
-9.59485
 30
0.0
  0
SEQEND
  8
0
  5
3CA
  0
POLYLINE
  8
BOTTOMSOLDER
  5
3CB
 66
     1
 10
0.0
 20
0.0
 30
0.0
 40
0.2413
 41
0.2413
 75
     8
  0
VERTEX
  8
BOTTOMSOLDER
  5
3CC
 10
-0.254
 20
-10.72515
 30
0.0
  0
VERTEX
  8
BOTTOMSOLDER
  5
3CD
 10
0.254
 20
-10.72515
 30
0.0
  0
SEQEND
  8
0
  5
3CE
  0
POLYLINE
  8
BOTTOMSOLDER
  5
3CF
 66
     1
 10
0.0
 20
0.0
 30
0.0
 40
0.2413
 41
0.2413
 75
     8
  0
VERTEX
  8
BOTTOMSOLDER
  5
3D0
 10
-0.254
 20
-10.72515
 30
0.0
 42
-1.0
  0
VERTEX
  8
BOTTOMSOLDER
  5
3D1
 10
-0.254
 20
-9.59485
 30
0.0
  0
SEQEND
  8
0
  5
3D2
  0
POLYLINE
  8
BOTTOMSOLDER
  5
3D3
 66
     1
 10
0.0
 20
0.0
 30
0.0
 40
0.2413
 41
0.2413
 75
     8
  0
VERTEX
  8
BOTTOMSOLDER
  5
3D4
 10
0.254
 20
-9.59485
 30
0.0
 42
-1.0
  0
VERTEX
  8
BOTTOMSOLDER
  5
3D5
 10
0.254
 20
-10.72515
 30
0.0
  0
SEQEND
  8
0
  5
3D6
  0
POLYLINE
  8
MULTILAYER
  5
3D7
 66
     1
 10
0.0
 20
0.0
 30
0.0
 70
     1
 40
0.1905
 41
0.1905
 75
     8
  0
VERTEX
  8
MULTILAYER
  5
3D8
 10
-0.53975
 20
-10.16
 30
0.0
 42
1.0
  0
VERTEX
  8
MULTILAYER
  5
3D9
 10
0.53975
 20
-10.16
 30
0.0
 42
1.0
  0
SEQEND
  8
0
  5
3DA
  0
POLYLINE
  8
MULTILAYER
  5
3DB
 66
     1
 10
0.0
 20
0.0
 30
0.0
 40
0.1905
 41
0.1905
 75
     8
  0
VERTEX
  8
MULTILAYER
  5
3DC
 10
-0.254
 20
-9.62025
 30
0.0
  0
VERTEX
  8
MULTILAYER
  5
3DD
 10
0.254
 20
-9.62025
 30
0.0
  0
SEQEND
  8
0
  5
3DE
  0
POLYLINE
  8
MULTILAYER
  5
3DF
 66
     1
 10
0.0
 20
0.0
 30
0.0
 40
0.1905
 41
0.1905
 75
     8
  0
VERTEX
  8
MULTILAYER
  5
3E0
 10
-0.254
 20
-10.69975
 30
0.0
  0
VERTEX
  8
MULTILAYER
  5
3E1
 10
0.254
 20
-10.69975
 30
0.0
  0
SEQEND
  8
0
  5
3E2
  0
POLYLINE
  8
MULTILAYER
  5
3E3
 66
     1
 10
0.0
 20
0.0
 30
0.0
 40
0.1905
 41
0.1905
 75
     8
  0
VERTEX
  8
MULTILAYER
  5
3E4
 10
-0.254
 20
-10.69975
 30
0.0
 42
-1.0
  0
VERTEX
  8
MULTILAYER
  5
3E5
 10
-0.254
 20
-9.62025
 30
0.0
  0
SEQEND
  8
0
  5
3E6
  0
POLYLINE
  8
MULTILAYER
  5
3E7
 66
     1
 10
0.0
 20
0.0
 30
0.0
 40
0.1905
 41
0.1905
 75
     8
  0
VERTEX
  8
MULTILAYER
  5
3E8
 10
0.254
 20
-9.62025
 30
0.0
 42
-1.0
  0
VERTEX
  8
MULTILAYER
  5
3E9
 10
0.254
 20
-10.69975
 30
0.0
  0
SEQEND
  8
0
  5
3EA
  0
POLYLINE
  8
TOPLAYER
  5
3EB
 66
     1
 10
0.0
 20
0.0
 30
0.0
 70
     1
 40
0.1905
 41
0.1905
 75
     8
  0
VERTEX
  8
TOPLAYER
  5
3EC
 10
-0.53975
 20
-8.128
 30
0.0
 42
1.0
  0
VERTEX
  8
TOPLAYER
  5
3ED
 10
0.53975
 20
-8.128
 30
0.0
 42
1.0
  0
SEQEND
  8
0
  5
3EE
  0
POLYLINE
  8
TOPLAYER
  5
3EF
 66
     1
 10
0.0
 20
0.0
 30
0.0
 40
0.1905
 41
0.1905
 75
     8
  0
VERTEX
  8
TOPLAYER
  5
3F0
 10
-0.254
 20
-7.58825
 30
0.0
  0
VERTEX
  8
TOPLAYER
  5
3F1
 10
0.254
 20
-7.58825
 30
0.0
  0
SEQEND
  8
0
  5
3F2
  0
POLYLINE
  8
TOPLAYER
  5
3F3
 66
     1
 10
0.0
 20
0.0
 30
0.0
 40
0.1905
 41
0.1905
 75
     8
  0
VERTEX
  8
TOPLAYER
  5
3F4
 10
-0.254
 20
-8.66775
 30
0.0
  0
VERTEX
  8
TOPLAYER
  5
3F5
 10
0.254
 20
-8.66775
 30
0.0
  0
SEQEND
  8
0
  5
3F6
  0
POLYLINE
  8
TOPLAYER
  5
3F7
 66
     1
 10
0.0
 20
0.0
 30
0.0
 40
0.1905
 41
0.1905
 75
     8
  0
VERTEX
  8
TOPLAYER
  5
3F8
 10
-0.254
 20
-8.66775
 30
0.0
 42
-1.0
  0
VERTEX
  8
TOPLAYER
  5
3F9
 10
-0.254
 20
-7.58825
 30
0.0
  0
SEQEND
  8
0
  5
3FA
  0
POLYLINE
  8
TOPLAYER
  5
3FB
 66
     1
 10
0.0
 20
0.0
 30
0.0
 40
0.1905
 41
0.1905
 75
     8
  0
VERTEX
  8
TOPLAYER
  5
3FC
 10
0.254
 20
-7.58825
 30
0.0
 42
-1.0
  0
VERTEX
  8
TOPLAYER
  5
3FD
 10
0.254
 20
-8.66775
 30
0.0
  0
SEQEND
  8
0
  5
3FE
  0
POLYLINE
  8
BOTTOMLAYER
  5
3FF
 66
     1
 10
0.0
 20
0.0
 30
0.0
 70
     1
 40
0.1905
 41
0.1905
 75
     8
  0
VERTEX
  8
BOTTOMLAYER
  5
400
 10
-0.53975
 20
-8.128
 30
0.0
 42
1.0
  0
VERTEX
  8
BOTTOMLAYER
  5
401
 10
0.53975
 20
-8.128
 30
0.0
 42
1.0
  0
SEQEND
  8
0
  5
402
  0
POLYLINE
  8
BOTTOMLAYER
  5
403
 66
     1
 10
0.0
 20
0.0
 30
0.0
 40
0.1905
 41
0.1905
 75
     8
  0
VERTEX
  8
BOTTOMLAYER
  5
404
 10
-0.254
 20
-7.58825
 30
0.0
  0
VERTEX
  8
BOTTOMLAYER
  5
405
 10
0.254
 20
-7.58825
 30
0.0
  0
SEQEND
  8
0
  5
406
  0
POLYLINE
  8
BOTTOMLAYER
  5
407
 66
     1
 10
0.0
 20
0.0
 30
0.0
 40
0.1905
 41
0.1905
 75
     8
  0
VERTEX
  8
BOTTOMLAYER
  5
408
 10
-0.254
 20
-8.66775
 30
0.0
  0
VERTEX
  8
BOTTOMLAYER
  5
409
 10
0.254
 20
-8.66775
 30
0.0
  0
SEQEND
  8
0
  5
40A
  0
POLYLINE
  8
BOTTOMLAYER
  5
40B
 66
     1
 10
0.0
 20
0.0
 30
0.0
 40
0.1905
 41
0.1905
 75
     8
  0
VERTEX
  8
BOTTOMLAYER
  5
40C
 10
-0.254
 20
-8.66775
 30
0.0
 42
-1.0
  0
VERTEX
  8
BOTTOMLAYER
  5
40D
 10
-0.254
 20
-7.58825
 30
0.0
  0
SEQEND
  8
0
  5
40E
  0
POLYLINE
  8
BOTTOMLAYER
  5
40F
 66
     1
 10
0.0
 20
0.0
 30
0.0
 40
0.1905
 41
0.1905
 75
     8
  0
VERTEX
  8
BOTTOMLAYER
  5
410
 10
0.254
 20
-7.58825
 30
0.0
 42
-1.0
  0
VERTEX
  8
BOTTOMLAYER
  5
411
 10
0.254
 20
-8.66775
 30
0.0
  0
SEQEND
  8
0
  5
412
  0
POLYLINE
  8
TOPSOLDER
  5
413
 66
     1
 10
0.0
 20
0.0
 30
0.0
 70
     1
 40
0.2413
 41
0.2413
 75
     8
  0
VERTEX
  8
TOPSOLDER
  5
414
 10
-0.56515
 20
-8.128
 30
0.0
 42
1.0
  0
VERTEX
  8
TOPSOLDER
  5
415
 10
0.56515
 20
-8.128
 30
0.0
 42
1.0
  0
SEQEND
  8
0
  5
416
  0
POLYLINE
  8
TOPSOLDER
  5
417
 66
     1
 10
0.0
 20
0.0
 30
0.0
 40
0.2413
 41
0.2413
 75
     8
  0
VERTEX
  8
TOPSOLDER
  5
418
 10
-0.254
 20
-7.56285
 30
0.0
  0
VERTEX
  8
TOPSOLDER
  5
419
 10
0.254
 20
-7.56285
 30
0.0
  0
SEQEND
  8
0
  5
41A
  0
POLYLINE
  8
TOPSOLDER
  5
41B
 66
     1
 10
0.0
 20
0.0
 30
0.0
 40
0.2413
 41
0.2413
 75
     8
  0
VERTEX
  8
TOPSOLDER
  5
41C
 10
-0.254
 20
-8.69315
 30
0.0
  0
VERTEX
  8
TOPSOLDER
  5
41D
 10
0.254
 20
-8.69315
 30
0.0
  0
SEQEND
  8
0
  5
41E
  0
POLYLINE
  8
TOPSOLDER
  5
41F
 66
     1
 10
0.0
 20
0.0
 30
0.0
 40
0.2413
 41
0.2413
 75
     8
  0
VERTEX
  8
TOPSOLDER
  5
420
 10
-0.254
 20
-8.69315
 30
0.0
 42
-1.0
  0
VERTEX
  8
TOPSOLDER
  5
421
 10
-0.254
 20
-7.56285
 30
0.0
  0
SEQEND
  8
0
  5
422
  0
POLYLINE
  8
TOPSOLDER
  5
423
 66
     1
 10
0.0
 20
0.0
 30
0.0
 40
0.2413
 41
0.2413
 75
     8
  0
VERTEX
  8
TOPSOLDER
  5
424
 10
0.254
 20
-7.56285
 30
0.0
 42
-1.0
  0
VERTEX
  8
TOPSOLDER
  5
425
 10
0.254
 20
-8.69315
 30
0.0
  0
SEQEND
  8
0
  5
426
  0
POLYLINE
  8
BOTTOMSOLDER
  5
427
 66
     1
 10
0.0
 20
0.0
 30
0.0
 70
     1
 40
0.2413
 41
0.2413
 75
     8
  0
VERTEX
  8
BOTTOMSOLDER
  5
428
 10
-0.56515
 20
-8.128
 30
0.0
 42
1.0
  0
VERTEX
  8
BOTTOMSOLDER
  5
429
 10
0.56515
 20
-8.128
 30
0.0
 42
1.0
  0
SEQEND
  8
0
  5
42A
  0
POLYLINE
  8
BOTTOMSOLDER
  5
42B
 66
     1
 10
0.0
 20
0.0
 30
0.0
 40
0.2413
 41
0.2413
 75
     8
  0
VERTEX
  8
BOTTOMSOLDER
  5
42C
 10
-0.254
 20
-7.56285
 30
0.0
  0
VERTEX
  8
BOTTOMSOLDER
  5
42D
 10
0.254
 20
-7.56285
 30
0.0
  0
SEQEND
  8
0
  5
42E
  0
POLYLINE
  8
BOTTOMSOLDER
  5
42F
 66
     1
 10
0.0
 20
0.0
 30
0.0
 40
0.2413
 41
0.2413
 75
     8
  0
VERTEX
  8
BOTTOMSOLDER
  5
430
 10
-0.254
 20
-8.69315
 30
0.0
  0
VERTEX
  8
BOTTOMSOLDER
  5
431
 10
0.254
 20
-8.69315
 30
0.0
  0
SEQEND
  8
0
  5
432
  0
POLYLINE
  8
BOTTOMSOLDER
  5
433
 66
     1
 10
0.0
 20
0.0
 30
0.0
 40
0.2413
 41
0.2413
 75
     8
  0
VERTEX
  8
BOTTOMSOLDER
  5
434
 10
-0.254
 20
-8.69315
 30
0.0
 42
-1.0
  0
VERTEX
  8
BOTTOMSOLDER
  5
435
 10
-0.254
 20
-7.56285
 30
0.0
  0
SEQEND
  8
0
  5
436
  0
POLYLINE
  8
BOTTOMSOLDER
  5
437
 66
     1
 10
0.0
 20
0.0
 30
0.0
 40
0.2413
 41
0.2413
 75
     8
  0
VERTEX
  8
BOTTOMSOLDER
  5
438
 10
0.254
 20
-7.56285
 30
0.0
 42
-1.0
  0
VERTEX
  8
BOTTOMSOLDER
  5
439
 10
0.254
 20
-8.69315
 30
0.0
  0
SEQEND
  8
0
  5
43A
  0
POLYLINE
  8
MULTILAYER
  5
43B
 66
     1
 10
0.0
 20
0.0
 30
0.0
 70
     1
 40
0.1905
 41
0.1905
 75
     8
  0
VERTEX
  8
MULTILAYER
  5
43C
 10
-0.53975
 20
-8.128
 30
0.0
 42
1.0
  0
VERTEX
  8
MULTILAYER
  5
43D
 10
0.53975
 20
-8.128
 30
0.0
 42
1.0
  0
SEQEND
  8
0
  5
43E
  0
POLYLINE
  8
MULTILAYER
  5
43F
 66
     1
 10
0.0
 20
0.0
 30
0.0
 40
0.1905
 41
0.1905
 75
     8
  0
VERTEX
  8
MULTILAYER
  5
440
 10
-0.254
 20
-7.58825
 30
0.0
  0
VERTEX
  8
MULTILAYER
  5
441
 10
0.254
 20
-7.58825
 30
0.0
  0
SEQEND
  8
0
  5
442
  0
POLYLINE
  8
MULTILAYER
  5
443
 66
     1
 10
0.0
 20
0.0
 30
0.0
 40
0.1905
 41
0.1905
 75
     8
  0
VERTEX
  8
MULTILAYER
  5
444
 10
-0.254
 20
-8.66775
 30
0.0
  0
VERTEX
  8
MULTILAYER
  5
445
 10
0.254
 20
-8.66775
 30
0.0
  0
SEQEND
  8
0
  5
446
  0
POLYLINE
  8
MULTILAYER
  5
447
 66
     1
 10
0.0
 20
0.0
 30
0.0
 40
0.1905
 41
0.1905
 75
     8
  0
VERTEX
  8
MULTILAYER
  5
448
 10
-0.254
 20
-8.66775
 30
0.0
 42
-1.0
  0
VERTEX
  8
MULTILAYER
  5
449
 10
-0.254
 20
-7.58825
 30
0.0
  0
SEQEND
  8
0
  5
44A
  0
POLYLINE
  8
MULTILAYER
  5
44B
 66
     1
 10
0.0
 20
0.0
 30
0.0
 40
0.1905
 41
0.1905
 75
     8
  0
VERTEX
  8
MULTILAYER
  5
44C
 10
0.254
 20
-7.58825
 30
0.0
 42
-1.0
  0
VERTEX
  8
MULTILAYER
  5
44D
 10
0.254
 20
-8.66775
 30
0.0
  0
SEQEND
  8
0
  5
44E
  0
POLYLINE
  8
TOPLAYER
  5
44F
 66
     1
 10
0.0
 20
0.0
 30
0.0
 70
     1
 40
0.1905
 41
0.1905
 75
     8
  0
VERTEX
  8
TOPLAYER
  5
450
 10
-0.53975
 20
-6.096
 30
0.0
 42
1.0
  0
VERTEX
  8
TOPLAYER
  5
451
 10
0.53975
 20
-6.096
 30
0.0
 42
1.0
  0
SEQEND
  8
0
  5
452
  0
POLYLINE
  8
TOPLAYER
  5
453
 66
     1
 10
0.0
 20
0.0
 30
0.0
 40
0.1905
 41
0.1905
 75
     8
  0
VERTEX
  8
TOPLAYER
  5
454
 10
-0.254
 20
-5.55625
 30
0.0
  0
VERTEX
  8
TOPLAYER
  5
455
 10
0.254
 20
-5.55625
 30
0.0
  0
SEQEND
  8
0
  5
456
  0
POLYLINE
  8
TOPLAYER
  5
457
 66
     1
 10
0.0
 20
0.0
 30
0.0
 40
0.1905
 41
0.1905
 75
     8
  0
VERTEX
  8
TOPLAYER
  5
458
 10
-0.254
 20
-6.63575
 30
0.0
  0
VERTEX
  8
TOPLAYER
  5
459
 10
0.254
 20
-6.63575
 30
0.0
  0
SEQEND
  8
0
  5
45A
  0
POLYLINE
  8
TOPLAYER
  5
45B
 66
     1
 10
0.0
 20
0.0
 30
0.0
 40
0.1905
 41
0.1905
 75
     8
  0
VERTEX
  8
TOPLAYER
  5
45C
 10
-0.254
 20
-6.63575
 30
0.0
 42
-1.0
  0
VERTEX
  8
TOPLAYER
  5
45D
 10
-0.254
 20
-5.55625
 30
0.0
  0
SEQEND
  8
0
  5
45E
  0
POLYLINE
  8
TOPLAYER
  5
45F
 66
     1
 10
0.0
 20
0.0
 30
0.0
 40
0.1905
 41
0.1905
 75
     8
  0
VERTEX
  8
TOPLAYER
  5
460
 10
0.254
 20
-5.55625
 30
0.0
 42
-1.0
  0
VERTEX
  8
TOPLAYER
  5
461
 10
0.254
 20
-6.63575
 30
0.0
  0
SEQEND
  8
0
  5
462
  0
POLYLINE
  8
BOTTOMLAYER
  5
463
 66
     1
 10
0.0
 20
0.0
 30
0.0
 70
     1
 40
0.1905
 41
0.1905
 75
     8
  0
VERTEX
  8
BOTTOMLAYER
  5
464
 10
-0.53975
 20
-6.096
 30
0.0
 42
1.0
  0
VERTEX
  8
BOTTOMLAYER
  5
465
 10
0.53975
 20
-6.096
 30
0.0
 42
1.0
  0
SEQEND
  8
0
  5
466
  0
POLYLINE
  8
BOTTOMLAYER
  5
467
 66
     1
 10
0.0
 20
0.0
 30
0.0
 40
0.1905
 41
0.1905
 75
     8
  0
VERTEX
  8
BOTTOMLAYER
  5
468
 10
-0.254
 20
-5.55625
 30
0.0
  0
VERTEX
  8
BOTTOMLAYER
  5
469
 10
0.254
 20
-5.55625
 30
0.0
  0
SEQEND
  8
0
  5
46A
  0
POLYLINE
  8
BOTTOMLAYER
  5
46B
 66
     1
 10
0.0
 20
0.0
 30
0.0
 40
0.1905
 41
0.1905
 75
     8
  0
VERTEX
  8
BOTTOMLAYER
  5
46C
 10
-0.254
 20
-6.63575
 30
0.0
  0
VERTEX
  8
BOTTOMLAYER
  5
46D
 10
0.254
 20
-6.63575
 30
0.0
  0
SEQEND
  8
0
  5
46E
  0
POLYLINE
  8
BOTTOMLAYER
  5
46F
 66
     1
 10
0.0
 20
0.0
 30
0.0
 40
0.1905
 41
0.1905
 75
     8
  0
VERTEX
  8
BOTTOMLAYER
  5
470
 10
-0.254
 20
-6.63575
 30
0.0
 42
-1.0
  0
VERTEX
  8
BOTTOMLAYER
  5
471
 10
-0.254
 20
-5.55625
 30
0.0
  0
SEQEND
  8
0
  5
472
  0
POLYLINE
  8
BOTTOMLAYER
  5
473
 66
     1
 10
0.0
 20
0.0
 30
0.0
 40
0.1905
 41
0.1905
 75
     8
  0
VERTEX
  8
BOTTOMLAYER
  5
474
 10
0.254
 20
-5.55625
 30
0.0
 42
-1.0
  0
VERTEX
  8
BOTTOMLAYER
  5
475
 10
0.254
 20
-6.63575
 30
0.0
  0
SEQEND
  8
0
  5
476
  0
POLYLINE
  8
TOPSOLDER
  5
477
 66
     1
 10
0.0
 20
0.0
 30
0.0
 70
     1
 40
0.2413
 41
0.2413
 75
     8
  0
VERTEX
  8
TOPSOLDER
  5
478
 10
-0.56515
 20
-6.096
 30
0.0
 42
1.0
  0
VERTEX
  8
TOPSOLDER
  5
479
 10
0.56515
 20
-6.096
 30
0.0
 42
1.0
  0
SEQEND
  8
0
  5
47A
  0
POLYLINE
  8
TOPSOLDER
  5
47B
 66
     1
 10
0.0
 20
0.0
 30
0.0
 40
0.2413
 41
0.2413
 75
     8
  0
VERTEX
  8
TOPSOLDER
  5
47C
 10
-0.254
 20
-5.53085
 30
0.0
  0
VERTEX
  8
TOPSOLDER
  5
47D
 10
0.254
 20
-5.53085
 30
0.0
  0
SEQEND
  8
0
  5
47E
  0
POLYLINE
  8
TOPSOLDER
  5
47F
 66
     1
 10
0.0
 20
0.0
 30
0.0
 40
0.2413
 41
0.2413
 75
     8
  0
VERTEX
  8
TOPSOLDER
  5
480
 10
-0.254
 20
-6.66115
 30
0.0
  0
VERTEX
  8
TOPSOLDER
  5
481
 10
0.254
 20
-6.66115
 30
0.0
  0
SEQEND
  8
0
  5
482
  0
POLYLINE
  8
TOPSOLDER
  5
483
 66
     1
 10
0.0
 20
0.0
 30
0.0
 40
0.2413
 41
0.2413
 75
     8
  0
VERTEX
  8
TOPSOLDER
  5
484
 10
-0.254
 20
-6.66115
 30
0.0
 42
-1.0
  0
VERTEX
  8
TOPSOLDER
  5
485
 10
-0.254
 20
-5.53085
 30
0.0
  0
SEQEND
  8
0
  5
486
  0
POLYLINE
  8
TOPSOLDER
  5
487
 66
     1
 10
0.0
 20
0.0
 30
0.0
 40
0.2413
 41
0.2413
 75
     8
  0
VERTEX
  8
TOPSOLDER
  5
488
 10
0.254
 20
-5.53085
 30
0.0
 42
-1.0
  0
VERTEX
  8
TOPSOLDER
  5
489
 10
0.254
 20
-6.66115
 30
0.0
  0
SEQEND
  8
0
  5
48A
  0
POLYLINE
  8
BOTTOMSOLDER
  5
48B
 66
     1
 10
0.0
 20
0.0
 30
0.0
 70
     1
 40
0.2413
 41
0.2413
 75
     8
  0
VERTEX
  8
BOTTOMSOLDER
  5
48C
 10
-0.56515
 20
-6.096
 30
0.0
 42
1.0
  0
VERTEX
  8
BOTTOMSOLDER
  5
48D
 10
0.56515
 20
-6.096
 30
0.0
 42
1.0
  0
SEQEND
  8
0
  5
48E
  0
POLYLINE
  8
BOTTOMSOLDER
  5
48F
 66
     1
 10
0.0
 20
0.0
 30
0.0
 40
0.2413
 41
0.2413
 75
     8
  0
VERTEX
  8
BOTTOMSOLDER
  5
490
 10
-0.254
 20
-5.53085
 30
0.0
  0
VERTEX
  8
BOTTOMSOLDER
  5
491
 10
0.254
 20
-5.53085
 30
0.0
  0
SEQEND
  8
0
  5
492
  0
POLYLINE
  8
BOTTOMSOLDER
  5
493
 66
     1
 10
0.0
 20
0.0
 30
0.0
 40
0.2413
 41
0.2413
 75
     8
  0
VERTEX
  8
BOTTOMSOLDER
  5
494
 10
-0.254
 20
-6.66115
 30
0.0
  0
VERTEX
  8
BOTTOMSOLDER
  5
495
 10
0.254
 20
-6.66115
 30
0.0
  0
SEQEND
  8
0
  5
496
  0
POLYLINE
  8
BOTTOMSOLDER
  5
497
 66
     1
 10
0.0
 20
0.0
 30
0.0
 40
0.2413
 41
0.2413
 75
     8
  0
VERTEX
  8
BOTTOMSOLDER
  5
498
 10
-0.254
 20
-6.66115
 30
0.0
 42
-1.0
  0
VERTEX
  8
BOTTOMSOLDER
  5
499
 10
-0.254
 20
-5.53085
 30
0.0
  0
SEQEND
  8
0
  5
49A
  0
POLYLINE
  8
BOTTOMSOLDER
  5
49B
 66
     1
 10
0.0
 20
0.0
 30
0.0
 40
0.2413
 41
0.2413
 75
     8
  0
VERTEX
  8
BOTTOMSOLDER
  5
49C
 10
0.254
 20
-5.53085
 30
0.0
 42
-1.0
  0
VERTEX
  8
BOTTOMSOLDER
  5
49D
 10
0.254
 20
-6.66115
 30
0.0
  0
SEQEND
  8
0
  5
49E
  0
POLYLINE
  8
MULTILAYER
  5
49F
 66
     1
 10
0.0
 20
0.0
 30
0.0
 70
     1
 40
0.1905
 41
0.1905
 75
     8
  0
VERTEX
  8
MULTILAYER
  5
4A0
 10
-0.53975
 20
-6.096
 30
0.0
 42
1.0
  0
VERTEX
  8
MULTILAYER
  5
4A1
 10
0.53975
 20
-6.096
 30
0.0
 42
1.0
  0
SEQEND
  8
0
  5
4A2
  0
POLYLINE
  8
MULTILAYER
  5
4A3
 66
     1
 10
0.0
 20
0.0
 30
0.0
 40
0.1905
 41
0.1905
 75
     8
  0
VERTEX
  8
MULTILAYER
  5
4A4
 10
-0.254
 20
-5.55625
 30
0.0
  0
VERTEX
  8
MULTILAYER
  5
4A5
 10
0.254
 20
-5.55625
 30
0.0
  0
SEQEND
  8
0
  5
4A6
  0
POLYLINE
  8
MULTILAYER
  5
4A7
 66
     1
 10
0.0
 20
0.0
 30
0.0
 40
0.1905
 41
0.1905
 75
     8
  0
VERTEX
  8
MULTILAYER
  5
4A8
 10
-0.254
 20
-6.63575
 30
0.0
  0
VERTEX
  8
MULTILAYER
  5
4A9
 10
0.254
 20
-6.63575
 30
0.0
  0
SEQEND
  8
0
  5
4AA
  0
POLYLINE
  8
MULTILAYER
  5
4AB
 66
     1
 10
0.0
 20
0.0
 30
0.0
 40
0.1905
 41
0.1905
 75
     8
  0
VERTEX
  8
MULTILAYER
  5
4AC
 10
-0.254
 20
-6.63575
 30
0.0
 42
-1.0
  0
VERTEX
  8
MULTILAYER
  5
4AD
 10
-0.254
 20
-5.55625
 30
0.0
  0
SEQEND
  8
0
  5
4AE
  0
POLYLINE
  8
MULTILAYER
  5
4AF
 66
     1
 10
0.0
 20
0.0
 30
0.0
 40
0.1905
 41
0.1905
 75
     8
  0
VERTEX
  8
MULTILAYER
  5
4B0
 10
0.254
 20
-5.55625
 30
0.0
 42
-1.0
  0
VERTEX
  8
MULTILAYER
  5
4B1
 10
0.254
 20
-6.63575
 30
0.0
  0
SEQEND
  8
0
  5
4B2
  0
POLYLINE
  8
TOPLAYER
  5
4B3
 66
     1
 10
0.0
 20
0.0
 30
0.0
 70
     1
 40
0.1905
 41
0.1905
 75
     8
  0
VERTEX
  8
TOPLAYER
  5
4B4
 10
-0.53975
 20
-4.064
 30
0.0
 42
1.0
  0
VERTEX
  8
TOPLAYER
  5
4B5
 10
0.53975
 20
-4.064
 30
0.0
 42
1.0
  0
SEQEND
  8
0
  5
4B6
  0
POLYLINE
  8
TOPLAYER
  5
4B7
 66
     1
 10
0.0
 20
0.0
 30
0.0
 40
0.1905
 41
0.1905
 75
     8
  0
VERTEX
  8
TOPLAYER
  5
4B8
 10
-0.254
 20
-3.52425
 30
0.0
  0
VERTEX
  8
TOPLAYER
  5
4B9
 10
0.254
 20
-3.52425
 30
0.0
  0
SEQEND
  8
0
  5
4BA
  0
POLYLINE
  8
TOPLAYER
  5
4BB
 66
     1
 10
0.0
 20
0.0
 30
0.0
 40
0.1905
 41
0.1905
 75
     8
  0
VERTEX
  8
TOPLAYER
  5
4BC
 10
-0.254
 20
-4.60375
 30
0.0
  0
VERTEX
  8
TOPLAYER
  5
4BD
 10
0.254
 20
-4.60375
 30
0.0
  0
SEQEND
  8
0
  5
4BE
  0
POLYLINE
  8
TOPLAYER
  5
4BF
 66
     1
 10
0.0
 20
0.0
 30
0.0
 40
0.1905
 41
0.1905
 75
     8
  0
VERTEX
  8
TOPLAYER
  5
4C0
 10
-0.254
 20
-4.60375
 30
0.0
 42
-1.0
  0
VERTEX
  8
TOPLAYER
  5
4C1
 10
-0.254
 20
-3.52425
 30
0.0
  0
SEQEND
  8
0
  5
4C2
  0
POLYLINE
  8
TOPLAYER
  5
4C3
 66
     1
 10
0.0
 20
0.0
 30
0.0
 40
0.1905
 41
0.1905
 75
     8
  0
VERTEX
  8
TOPLAYER
  5
4C4
 10
0.254
 20
-3.52425
 30
0.0
 42
-1.0
  0
VERTEX
  8
TOPLAYER
  5
4C5
 10
0.254
 20
-4.60375
 30
0.0
  0
SEQEND
  8
0
  5
4C6
  0
POLYLINE
  8
BOTTOMLAYER
  5
4C7
 66
     1
 10
0.0
 20
0.0
 30
0.0
 70
     1
 40
0.1905
 41
0.1905
 75
     8
  0
VERTEX
  8
BOTTOMLAYER
  5
4C8
 10
-0.53975
 20
-4.064
 30
0.0
 42
1.0
  0
VERTEX
  8
BOTTOMLAYER
  5
4C9
 10
0.53975
 20
-4.064
 30
0.0
 42
1.0
  0
SEQEND
  8
0
  5
4CA
  0
POLYLINE
  8
BOTTOMLAYER
  5
4CB
 66
     1
 10
0.0
 20
0.0
 30
0.0
 40
0.1905
 41
0.1905
 75
     8
  0
VERTEX
  8
BOTTOMLAYER
  5
4CC
 10
-0.254
 20
-3.52425
 30
0.0
  0
VERTEX
  8
BOTTOMLAYER
  5
4CD
 10
0.254
 20
-3.52425
 30
0.0
  0
SEQEND
  8
0
  5
4CE
  0
POLYLINE
  8
BOTTOMLAYER
  5
4CF
 66
     1
 10
0.0
 20
0.0
 30
0.0
 40
0.1905
 41
0.1905
 75
     8
  0
VERTEX
  8
BOTTOMLAYER
  5
4D0
 10
-0.254
 20
-4.60375
 30
0.0
  0
VERTEX
  8
BOTTOMLAYER
  5
4D1
 10
0.254
 20
-4.60375
 30
0.0
  0
SEQEND
  8
0
  5
4D2
  0
POLYLINE
  8
BOTTOMLAYER
  5
4D3
 66
     1
 10
0.0
 20
0.0
 30
0.0
 40
0.1905
 41
0.1905
 75
     8
  0
VERTEX
  8
BOTTOMLAYER
  5
4D4
 10
-0.254
 20
-4.60375
 30
0.0
 42
-1.0
  0
VERTEX
  8
BOTTOMLAYER
  5
4D5
 10
-0.254
 20
-3.52425
 30
0.0
  0
SEQEND
  8
0
  5
4D6
  0
POLYLINE
  8
BOTTOMLAYER
  5
4D7
 66
     1
 10
0.0
 20
0.0
 30
0.0
 40
0.1905
 41
0.1905
 75
     8
  0
VERTEX
  8
BOTTOMLAYER
  5
4D8
 10
0.254
 20
-3.52425
 30
0.0
 42
-1.0
  0
VERTEX
  8
BOTTOMLAYER
  5
4D9
 10
0.254
 20
-4.60375
 30
0.0
  0
SEQEND
  8
0
  5
4DA
  0
POLYLINE
  8
TOPSOLDER
  5
4DB
 66
     1
 10
0.0
 20
0.0
 30
0.0
 70
     1
 40
0.2413
 41
0.2413
 75
     8
  0
VERTEX
  8
TOPSOLDER
  5
4DC
 10
-0.56515
 20
-4.064
 30
0.0
 42
1.0
  0
VERTEX
  8
TOPSOLDER
  5
4DD
 10
0.56515
 20
-4.064
 30
0.0
 42
1.0
  0
SEQEND
  8
0
  5
4DE
  0
POLYLINE
  8
TOPSOLDER
  5
4DF
 66
     1
 10
0.0
 20
0.0
 30
0.0
 40
0.2413
 41
0.2413
 75
     8
  0
VERTEX
  8
TOPSOLDER
  5
4E0
 10
-0.254
 20
-3.49885
 30
0.0
  0
VERTEX
  8
TOPSOLDER
  5
4E1
 10
0.254
 20
-3.49885
 30
0.0
  0
SEQEND
  8
0
  5
4E2
  0
POLYLINE
  8
TOPSOLDER
  5
4E3
 66
     1
 10
0.0
 20
0.0
 30
0.0
 40
0.2413
 41
0.2413
 75
     8
  0
VERTEX
  8
TOPSOLDER
  5
4E4
 10
-0.254
 20
-4.62915
 30
0.0
  0
VERTEX
  8
TOPSOLDER
  5
4E5
 10
0.254
 20
-4.62915
 30
0.0
  0
SEQEND
  8
0
  5
4E6
  0
POLYLINE
  8
TOPSOLDER
  5
4E7
 66
     1
 10
0.0
 20
0.0
 30
0.0
 40
0.2413
 41
0.2413
 75
     8
  0
VERTEX
  8
TOPSOLDER
  5
4E8
 10
-0.254
 20
-4.62915
 30
0.0
 42
-1.0
  0
VERTEX
  8
TOPSOLDER
  5
4E9
 10
-0.254
 20
-3.49885
 30
0.0
  0
SEQEND
  8
0
  5
4EA
  0
POLYLINE
  8
TOPSOLDER
  5
4EB
 66
     1
 10
0.0
 20
0.0
 30
0.0
 40
0.2413
 41
0.2413
 75
     8
  0
VERTEX
  8
TOPSOLDER
  5
4EC
 10
0.254
 20
-3.49885
 30
0.0
 42
-1.0
  0
VERTEX
  8
TOPSOLDER
  5
4ED
 10
0.254
 20
-4.62915
 30
0.0
  0
SEQEND
  8
0
  5
4EE
  0
POLYLINE
  8
BOTTOMSOLDER
  5
4EF
 66
     1
 10
0.0
 20
0.0
 30
0.0
 70
     1
 40
0.2413
 41
0.2413
 75
     8
  0
VERTEX
  8
BOTTOMSOLDER
  5
4F0
 10
-0.56515
 20
-4.064
 30
0.0
 42
1.0
  0
VERTEX
  8
BOTTOMSOLDER
  5
4F1
 10
0.56515
 20
-4.064
 30
0.0
 42
1.0
  0
SEQEND
  8
0
  5
4F2
  0
POLYLINE
  8
BOTTOMSOLDER
  5
4F3
 66
     1
 10
0.0
 20
0.0
 30
0.0
 40
0.2413
 41
0.2413
 75
     8
  0
VERTEX
  8
BOTTOMSOLDER
  5
4F4
 10
-0.254
 20
-3.49885
 30
0.0
  0
VERTEX
  8
BOTTOMSOLDER
  5
4F5
 10
0.254
 20
-3.49885
 30
0.0
  0
SEQEND
  8
0
  5
4F6
  0
POLYLINE
  8
BOTTOMSOLDER
  5
4F7
 66
     1
 10
0.0
 20
0.0
 30
0.0
 40
0.2413
 41
0.2413
 75
     8
  0
VERTEX
  8
BOTTOMSOLDER
  5
4F8
 10
-0.254
 20
-4.62915
 30
0.0
  0
VERTEX
  8
BOTTOMSOLDER
  5
4F9
 10
0.254
 20
-4.62915
 30
0.0
  0
SEQEND
  8
0
  5
4FA
  0
POLYLINE
  8
BOTTOMSOLDER
  5
4FB
 66
     1
 10
0.0
 20
0.0
 30
0.0
 40
0.2413
 41
0.2413
 75
     8
  0
VERTEX
  8
BOTTOMSOLDER
  5
4FC
 10
-0.254
 20
-4.62915
 30
0.0
 42
-1.0
  0
VERTEX
  8
BOTTOMSOLDER
  5
4FD
 10
-0.254
 20
-3.49885
 30
0.0
  0
SEQEND
  8
0
  5
4FE
  0
POLYLINE
  8
BOTTOMSOLDER
  5
4FF
 66
     1
 10
0.0
 20
0.0
 30
0.0
 40
0.2413
 41
0.2413
 75
     8
  0
VERTEX
  8
BOTTOMSOLDER
  5
500
 10
0.254
 20
-3.49885
 30
0.0
 42
-1.0
  0
VERTEX
  8
BOTTOMSOLDER
  5
501
 10
0.254
 20
-4.62915
 30
0.0
  0
SEQEND
  8
0
  5
502
  0
POLYLINE
  8
MULTILAYER
  5
503
 66
     1
 10
0.0
 20
0.0
 30
0.0
 70
     1
 40
0.1905
 41
0.1905
 75
     8
  0
VERTEX
  8
MULTILAYER
  5
504
 10
-0.53975
 20
-4.064
 30
0.0
 42
1.0
  0
VERTEX
  8
MULTILAYER
  5
505
 10
0.53975
 20
-4.064
 30
0.0
 42
1.0
  0
SEQEND
  8
0
  5
506
  0
POLYLINE
  8
MULTILAYER
  5
507
 66
     1
 10
0.0
 20
0.0
 30
0.0
 40
0.1905
 41
0.1905
 75
     8
  0
VERTEX
  8
MULTILAYER
  5
508
 10
-0.254
 20
-3.52425
 30
0.0
  0
VERTEX
  8
MULTILAYER
  5
509
 10
0.254
 20
-3.52425
 30
0.0
  0
SEQEND
  8
0
  5
50A
  0
POLYLINE
  8
MULTILAYER
  5
50B
 66
     1
 10
0.0
 20
0.0
 30
0.0
 40
0.1905
 41
0.1905
 75
     8
  0
VERTEX
  8
MULTILAYER
  5
50C
 10
-0.254
 20
-4.60375
 30
0.0
  0
VERTEX
  8
MULTILAYER
  5
50D
 10
0.254
 20
-4.60375
 30
0.0
  0
SEQEND
  8
0
  5
50E
  0
POLYLINE
  8
MULTILAYER
  5
50F
 66
     1
 10
0.0
 20
0.0
 30
0.0
 40
0.1905
 41
0.1905
 75
     8
  0
VERTEX
  8
MULTILAYER
  5
510
 10
-0.254
 20
-4.60375
 30
0.0
 42
-1.0
  0
VERTEX
  8
MULTILAYER
  5
511
 10
-0.254
 20
-3.52425
 30
0.0
  0
SEQEND
  8
0
  5
512
  0
POLYLINE
  8
MULTILAYER
  5
513
 66
     1
 10
0.0
 20
0.0
 30
0.0
 40
0.1905
 41
0.1905
 75
     8
  0
VERTEX
  8
MULTILAYER
  5
514
 10
0.254
 20
-3.52425
 30
0.0
 42
-1.0
  0
VERTEX
  8
MULTILAYER
  5
515
 10
0.254
 20
-4.60375
 30
0.0
  0
SEQEND
  8
0
  5
516
  0
POLYLINE
  8
TOPLAYER
  5
517
 66
     1
 10
0.0
 20
0.0
 30
0.0
 70
     1
 40
0.1905
 41
0.1905
 75
     8
  0
VERTEX
  8
TOPLAYER
  5
518
 10
-0.53975
 20
-2.032
 30
0.0
 42
1.0
  0
VERTEX
  8
TOPLAYER
  5
519
 10
0.53975
 20
-2.032
 30
0.0
 42
1.0
  0
SEQEND
  8
0
  5
51A
  0
POLYLINE
  8
TOPLAYER
  5
51B
 66
     1
 10
0.0
 20
0.0
 30
0.0
 40
0.1905
 41
0.1905
 75
     8
  0
VERTEX
  8
TOPLAYER
  5
51C
 10
-0.254
 20
-1.49225
 30
0.0
  0
VERTEX
  8
TOPLAYER
  5
51D
 10
0.254
 20
-1.49225
 30
0.0
  0
SEQEND
  8
0
  5
51E
  0
POLYLINE
  8
TOPLAYER
  5
51F
 66
     1
 10
0.0
 20
0.0
 30
0.0
 40
0.1905
 41
0.1905
 75
     8
  0
VERTEX
  8
TOPLAYER
  5
520
 10
-0.254
 20
-2.57175
 30
0.0
  0
VERTEX
  8
TOPLAYER
  5
521
 10
0.254
 20
-2.57175
 30
0.0
  0
SEQEND
  8
0
  5
522
  0
POLYLINE
  8
TOPLAYER
  5
523
 66
     1
 10
0.0
 20
0.0
 30
0.0
 40
0.1905
 41
0.1905
 75
     8
  0
VERTEX
  8
TOPLAYER
  5
524
 10
-0.254
 20
-2.57175
 30
0.0
 42
-1.0
  0
VERTEX
  8
TOPLAYER
  5
525
 10
-0.254
 20
-1.49225
 30
0.0
  0
SEQEND
  8
0
  5
526
  0
POLYLINE
  8
TOPLAYER
  5
527
 66
     1
 10
0.0
 20
0.0
 30
0.0
 40
0.1905
 41
0.1905
 75
     8
  0
VERTEX
  8
TOPLAYER
  5
528
 10
0.254
 20
-1.49225
 30
0.0
 42
-1.0
  0
VERTEX
  8
TOPLAYER
  5
529
 10
0.254
 20
-2.57175
 30
0.0
  0
SEQEND
  8
0
  5
52A
  0
POLYLINE
  8
BOTTOMLAYER
  5
52B
 66
     1
 10
0.0
 20
0.0
 30
0.0
 70
     1
 40
0.1905
 41
0.1905
 75
     8
  0
VERTEX
  8
BOTTOMLAYER
  5
52C
 10
-0.53975
 20
-2.032
 30
0.0
 42
1.0
  0
VERTEX
  8
BOTTOMLAYER
  5
52D
 10
0.53975
 20
-2.032
 30
0.0
 42
1.0
  0
SEQEND
  8
0
  5
52E
  0
POLYLINE
  8
BOTTOMLAYER
  5
52F
 66
     1
 10
0.0
 20
0.0
 30
0.0
 40
0.1905
 41
0.1905
 75
     8
  0
VERTEX
  8
BOTTOMLAYER
  5
530
 10
-0.254
 20
-1.49225
 30
0.0
  0
VERTEX
  8
BOTTOMLAYER
  5
531
 10
0.254
 20
-1.49225
 30
0.0
  0
SEQEND
  8
0
  5
532
  0
POLYLINE
  8
BOTTOMLAYER
  5
533
 66
     1
 10
0.0
 20
0.0
 30
0.0
 40
0.1905
 41
0.1905
 75
     8
  0
VERTEX
  8
BOTTOMLAYER
  5
534
 10
-0.254
 20
-2.57175
 30
0.0
  0
VERTEX
  8
BOTTOMLAYER
  5
535
 10
0.254
 20
-2.57175
 30
0.0
  0
SEQEND
  8
0
  5
536
  0
POLYLINE
  8
BOTTOMLAYER
  5
537
 66
     1
 10
0.0
 20
0.0
 30
0.0
 40
0.1905
 41
0.1905
 75
     8
  0
VERTEX
  8
BOTTOMLAYER
  5
538
 10
-0.254
 20
-2.57175
 30
0.0
 42
-1.0
  0
VERTEX
  8
BOTTOMLAYER
  5
539
 10
-0.254
 20
-1.49225
 30
0.0
  0
SEQEND
  8
0
  5
53A
  0
POLYLINE
  8
BOTTOMLAYER
  5
53B
 66
     1
 10
0.0
 20
0.0
 30
0.0
 40
0.1905
 41
0.1905
 75
     8
  0
VERTEX
  8
BOTTOMLAYER
  5
53C
 10
0.254
 20
-1.49225
 30
0.0
 42
-1.0
  0
VERTEX
  8
BOTTOMLAYER
  5
53D
 10
0.254
 20
-2.57175
 30
0.0
  0
SEQEND
  8
0
  5
53E
  0
POLYLINE
  8
TOPSOLDER
  5
53F
 66
     1
 10
0.0
 20
0.0
 30
0.0
 70
     1
 40
0.2413
 41
0.2413
 75
     8
  0
VERTEX
  8
TOPSOLDER
  5
540
 10
-0.56515
 20
-2.032
 30
0.0
 42
1.0
  0
VERTEX
  8
TOPSOLDER
  5
541
 10
0.56515
 20
-2.032
 30
0.0
 42
1.0
  0
SEQEND
  8
0
  5
542
  0
POLYLINE
  8
TOPSOLDER
  5
543
 66
     1
 10
0.0
 20
0.0
 30
0.0
 40
0.2413
 41
0.2413
 75
     8
  0
VERTEX
  8
TOPSOLDER
  5
544
 10
-0.254
 20
-1.46685
 30
0.0
  0
VERTEX
  8
TOPSOLDER
  5
545
 10
0.254
 20
-1.46685
 30
0.0
  0
SEQEND
  8
0
  5
546
  0
POLYLINE
  8
TOPSOLDER
  5
547
 66
     1
 10
0.0
 20
0.0
 30
0.0
 40
0.2413
 41
0.2413
 75
     8
  0
VERTEX
  8
TOPSOLDER
  5
548
 10
-0.254
 20
-2.59715
 30
0.0
  0
VERTEX
  8
TOPSOLDER
  5
549
 10
0.254
 20
-2.59715
 30
0.0
  0
SEQEND
  8
0
  5
54A
  0
POLYLINE
  8
TOPSOLDER
  5
54B
 66
     1
 10
0.0
 20
0.0
 30
0.0
 40
0.2413
 41
0.2413
 75
     8
  0
VERTEX
  8
TOPSOLDER
  5
54C
 10
-0.254
 20
-2.59715
 30
0.0
 42
-1.0
  0
VERTEX
  8
TOPSOLDER
  5
54D
 10
-0.254
 20
-1.46685
 30
0.0
  0
SEQEND
  8
0
  5
54E
  0
POLYLINE
  8
TOPSOLDER
  5
54F
 66
     1
 10
0.0
 20
0.0
 30
0.0
 40
0.2413
 41
0.2413
 75
     8
  0
VERTEX
  8
TOPSOLDER
  5
550
 10
0.254
 20
-1.46685
 30
0.0
 42
-1.0
  0
VERTEX
  8
TOPSOLDER
  5
551
 10
0.254
 20
-2.59715
 30
0.0
  0
SEQEND
  8
0
  5
552
  0
POLYLINE
  8
BOTTOMSOLDER
  5
553
 66
     1
 10
0.0
 20
0.0
 30
0.0
 70
     1
 40
0.2413
 41
0.2413
 75
     8
  0
VERTEX
  8
BOTTOMSOLDER
  5
554
 10
-0.56515
 20
-2.032
 30
0.0
 42
1.0
  0
VERTEX
  8
BOTTOMSOLDER
  5
555
 10
0.56515
 20
-2.032
 30
0.0
 42
1.0
  0
SEQEND
  8
0
  5
556
  0
POLYLINE
  8
BOTTOMSOLDER
  5
557
 66
     1
 10
0.0
 20
0.0
 30
0.0
 40
0.2413
 41
0.2413
 75
     8
  0
VERTEX
  8
BOTTOMSOLDER
  5
558
 10
-0.254
 20
-1.46685
 30
0.0
  0
VERTEX
  8
BOTTOMSOLDER
  5
559
 10
0.254
 20
-1.46685
 30
0.0
  0
SEQEND
  8
0
  5
55A
  0
POLYLINE
  8
BOTTOMSOLDER
  5
55B
 66
     1
 10
0.0
 20
0.0
 30
0.0
 40
0.2413
 41
0.2413
 75
     8
  0
VERTEX
  8
BOTTOMSOLDER
  5
55C
 10
-0.254
 20
-2.59715
 30
0.0
  0
VERTEX
  8
BOTTOMSOLDER
  5
55D
 10
0.254
 20
-2.59715
 30
0.0
  0
SEQEND
  8
0
  5
55E
  0
POLYLINE
  8
BOTTOMSOLDER
  5
55F
 66
     1
 10
0.0
 20
0.0
 30
0.0
 40
0.2413
 41
0.2413
 75
     8
  0
VERTEX
  8
BOTTOMSOLDER
  5
560
 10
-0.254
 20
-2.59715
 30
0.0
 42
-1.0
  0
VERTEX
  8
BOTTOMSOLDER
  5
561
 10
-0.254
 20
-1.46685
 30
0.0
  0
SEQEND
  8
0
  5
562
  0
POLYLINE
  8
BOTTOMSOLDER
  5
563
 66
     1
 10
0.0
 20
0.0
 30
0.0
 40
0.2413
 41
0.2413
 75
     8
  0
VERTEX
  8
BOTTOMSOLDER
  5
564
 10
0.254
 20
-1.46685
 30
0.0
 42
-1.0
  0
VERTEX
  8
BOTTOMSOLDER
  5
565
 10
0.254
 20
-2.59715
 30
0.0
  0
SEQEND
  8
0
  5
566
  0
POLYLINE
  8
MULTILAYER
  5
567
 66
     1
 10
0.0
 20
0.0
 30
0.0
 70
     1
 40
0.1905
 41
0.1905
 75
     8
  0
VERTEX
  8
MULTILAYER
  5
568
 10
-0.53975
 20
-2.032
 30
0.0
 42
1.0
  0
VERTEX
  8
MULTILAYER
  5
569
 10
0.53975
 20
-2.032
 30
0.0
 42
1.0
  0
SEQEND
  8
0
  5
56A
  0
POLYLINE
  8
MULTILAYER
  5
56B
 66
     1
 10
0.0
 20
0.0
 30
0.0
 40
0.1905
 41
0.1905
 75
     8
  0
VERTEX
  8
MULTILAYER
  5
56C
 10
-0.254
 20
-1.49225
 30
0.0
  0
VERTEX
  8
MULTILAYER
  5
56D
 10
0.254
 20
-1.49225
 30
0.0
  0
SEQEND
  8
0
  5
56E
  0
POLYLINE
  8
MULTILAYER
  5
56F
 66
     1
 10
0.0
 20
0.0
 30
0.0
 40
0.1905
 41
0.1905
 75
     8
  0
VERTEX
  8
MULTILAYER
  5
570
 10
-0.254
 20
-2.57175
 30
0.0
  0
VERTEX
  8
MULTILAYER
  5
571
 10
0.254
 20
-2.57175
 30
0.0
  0
SEQEND
  8
0
  5
572
  0
POLYLINE
  8
MULTILAYER
  5
573
 66
     1
 10
0.0
 20
0.0
 30
0.0
 40
0.1905
 41
0.1905
 75
     8
  0
VERTEX
  8
MULTILAYER
  5
574
 10
-0.254
 20
-2.57175
 30
0.0
 42
-1.0
  0
VERTEX
  8
MULTILAYER
  5
575
 10
-0.254
 20
-1.49225
 30
0.0
  0
SEQEND
  8
0
  5
576
  0
POLYLINE
  8
MULTILAYER
  5
577
 66
     1
 10
0.0
 20
0.0
 30
0.0
 40
0.1905
 41
0.1905
 75
     8
  0
VERTEX
  8
MULTILAYER
  5
578
 10
0.254
 20
-1.49225
 30
0.0
 42
-1.0
  0
VERTEX
  8
MULTILAYER
  5
579
 10
0.254
 20
-2.57175
 30
0.0
  0
SEQEND
  8
0
  5
57A
  0
POLYLINE
  8
TOPLAYER
  5
57B
 66
     1
 10
0.0
 20
0.0
 30
0.0
 40
0.1905
 41
0.1905
 75
     8
  0
VERTEX
  8
TOPLAYER
  5
57C
 10
-0.889
 20
0.53975
 30
0.0
  0
VERTEX
  8
TOPLAYER
  5
57D
 10
0.889
 20
0.53975
 30
0.0
  0
SEQEND
  8
0
  5
57E
  0
POLYLINE
  8
TOPLAYER
  5
57F
 66
     1
 10
0.0
 20
0.0
 30
0.0
 40
0.1905
 41
0.1905
 75
     8
  0
VERTEX
  8
TOPLAYER
  5
580
 10
-0.889
 20
-0.53975
 30
0.0
  0
VERTEX
  8
TOPLAYER
  5
581
 10
0.889
 20
-0.53975
 30
0.0
  0
SEQEND
  8
0
  5
582
  0
POLYLINE
  8
TOPLAYER
  5
583
 66
     1
 10
0.0
 20
0.0
 30
0.0
 40
0.4445
 41
0.4445
 75
     8
  0
VERTEX
  8
TOPLAYER
  5
584
 10
-0.66675
 20
0.635
 30
0.0
  0
VERTEX
  8
TOPLAYER
  5
585
 10
-0.66675
 20
-0.635
 30
0.0
  0
SEQEND
  8
0
  5
586
  0
POLYLINE
  8
TOPLAYER
  5
587
 66
     1
 10
0.0
 20
0.0
 30
0.0
 40
0.4445
 41
0.4445
 75
     8
  0
VERTEX
  8
TOPLAYER
  5
588
 10
0.66675
 20
0.635
 30
0.0
  0
VERTEX
  8
TOPLAYER
  5
589
 10
0.66675
 20
-0.635
 30
0.0
  0
SEQEND
  8
0
  5
58A
  0
POLYLINE
  8
TOPLAYER
  5
58B
 66
     1
 10
0.0
 20
0.0
 30
0.0
 70
     1
 40
0.1905
 41
0.1905
 75
     8
  0
VERTEX
  8
TOPLAYER
  5
58C
 10
-0.53975
 20
0.0
 30
0.0
 42
1.0
  0
VERTEX
  8
TOPLAYER
  5
58D
 10
0.53975
 20
0.0
 30
0.0
 42
1.0
  0
SEQEND
  8
0
  5
58E
  0
POLYLINE
  8
BOTTOMLAYER
  5
58F
 66
     1
 10
0.0
 20
0.0
 30
0.0
 40
0.1905
 41
0.1905
 75
     8
  0
VERTEX
  8
BOTTOMLAYER
  5
590
 10
-0.889
 20
0.53975
 30
0.0
  0
VERTEX
  8
BOTTOMLAYER
  5
591
 10
0.889
 20
0.53975
 30
0.0
  0
SEQEND
  8
0
  5
592
  0
POLYLINE
  8
BOTTOMLAYER
  5
593
 66
     1
 10
0.0
 20
0.0
 30
0.0
 40
0.1905
 41
0.1905
 75
     8
  0
VERTEX
  8
BOTTOMLAYER
  5
594
 10
-0.889
 20
-0.53975
 30
0.0
  0
VERTEX
  8
BOTTOMLAYER
  5
595
 10
0.889
 20
-0.53975
 30
0.0
  0
SEQEND
  8
0
  5
596
  0
POLYLINE
  8
BOTTOMLAYER
  5
597
 66
     1
 10
0.0
 20
0.0
 30
0.0
 40
0.4445
 41
0.4445
 75
     8
  0
VERTEX
  8
BOTTOMLAYER
  5
598
 10
-0.66675
 20
0.635
 30
0.0
  0
VERTEX
  8
BOTTOMLAYER
  5
599
 10
-0.66675
 20
-0.635
 30
0.0
  0
SEQEND
  8
0
  5
59A
  0
POLYLINE
  8
BOTTOMLAYER
  5
59B
 66
     1
 10
0.0
 20
0.0
 30
0.0
 40
0.4445
 41
0.4445
 75
     8
  0
VERTEX
  8
BOTTOMLAYER
  5
59C
 10
0.66675
 20
0.635
 30
0.0
  0
VERTEX
  8
BOTTOMLAYER
  5
59D
 10
0.66675
 20
-0.635
 30
0.0
  0
SEQEND
  8
0
  5
59E
  0
POLYLINE
  8
BOTTOMLAYER
  5
59F
 66
     1
 10
0.0
 20
0.0
 30
0.0
 70
     1
 40
0.1905
 41
0.1905
 75
     8
  0
VERTEX
  8
BOTTOMLAYER
  5
5A0
 10
-0.53975
 20
0.0
 30
0.0
 42
1.0
  0
VERTEX
  8
BOTTOMLAYER
  5
5A1
 10
0.53975
 20
0.0
 30
0.0
 42
1.0
  0
SEQEND
  8
0
  5
5A2
  0
POLYLINE
  8
TOPSOLDER
  5
5A3
 66
     1
 10
0.0
 20
0.0
 30
0.0
 40
0.2413
 41
0.2413
 75
     8
  0
VERTEX
  8
TOPSOLDER
  5
5A4
 10
-0.9398
 20
0.56515
 30
0.0
  0
VERTEX
  8
TOPSOLDER
  5
5A5
 10
0.9398
 20
0.56515
 30
0.0
  0
SEQEND
  8
0
  5
5A6
  0
POLYLINE
  8
TOPSOLDER
  5
5A7
 66
     1
 10
0.0
 20
0.0
 30
0.0
 40
0.2413
 41
0.2413
 75
     8
  0
VERTEX
  8
TOPSOLDER
  5
5A8
 10
-0.9398
 20
-0.56515
 30
0.0
  0
VERTEX
  8
TOPSOLDER
  5
5A9
 10
0.9398
 20
-0.56515
 30
0.0
  0
SEQEND
  8
0
  5
5AA
  0
POLYLINE
  8
TOPSOLDER
  5
5AB
 66
     1
 10
0.0
 20
0.0
 30
0.0
 40
0.4953
 41
0.4953
 75
     8
  0
VERTEX
  8
TOPSOLDER
  5
5AC
 10
-0.69215
 20
0.6858
 30
0.0
  0
VERTEX
  8
TOPSOLDER
  5
5AD
 10
-0.69215
 20
-0.6858
 30
0.0
  0
SEQEND
  8
0
  5
5AE
  0
POLYLINE
  8
TOPSOLDER
  5
5AF
 66
     1
 10
0.0
 20
0.0
 30
0.0
 40
0.4953
 41
0.4953
 75
     8
  0
VERTEX
  8
TOPSOLDER
  5
5B0
 10
0.69215
 20
0.6858
 30
0.0
  0
VERTEX
  8
TOPSOLDER
  5
5B1
 10
0.69215
 20
-0.6858
 30
0.0
  0
SEQEND
  8
0
  5
5B2
  0
POLYLINE
  8
TOPSOLDER
  5
5B3
 66
     1
 10
0.0
 20
0.0
 30
0.0
 70
     1
 40
0.2413
 41
0.2413
 75
     8
  0
VERTEX
  8
TOPSOLDER
  5
5B4
 10
-0.56515
 20
0.0
 30
0.0
 42
1.0
  0
VERTEX
  8
TOPSOLDER
  5
5B5
 10
0.56515
 20
0.0
 30
0.0
 42
1.0
  0
SEQEND
  8
0
  5
5B6
  0
POLYLINE
  8
BOTTOMSOLDER
  5
5B7
 66
     1
 10
0.0
 20
0.0
 30
0.0
 40
0.2413
 41
0.2413
 75
     8
  0
VERTEX
  8
BOTTOMSOLDER
  5
5B8
 10
-0.9398
 20
0.56515
 30
0.0
  0
VERTEX
  8
BOTTOMSOLDER
  5
5B9
 10
0.9398
 20
0.56515
 30
0.0
  0
SEQEND
  8
0
  5
5BA
  0
POLYLINE
  8
BOTTOMSOLDER
  5
5BB
 66
     1
 10
0.0
 20
0.0
 30
0.0
 40
0.2413
 41
0.2413
 75
     8
  0
VERTEX
  8
BOTTOMSOLDER
  5
5BC
 10
-0.9398
 20
-0.56515
 30
0.0
  0
VERTEX
  8
BOTTOMSOLDER
  5
5BD
 10
0.9398
 20
-0.56515
 30
0.0
  0
SEQEND
  8
0
  5
5BE
  0
POLYLINE
  8
BOTTOMSOLDER
  5
5BF
 66
     1
 10
0.0
 20
0.0
 30
0.0
 40
0.4953
 41
0.4953
 75
     8
  0
VERTEX
  8
BOTTOMSOLDER
  5
5C0
 10
-0.69215
 20
0.6858
 30
0.0
  0
VERTEX
  8
BOTTOMSOLDER
  5
5C1
 10
-0.69215
 20
-0.6858
 30
0.0
  0
SEQEND
  8
0
  5
5C2
  0
POLYLINE
  8
BOTTOMSOLDER
  5
5C3
 66
     1
 10
0.0
 20
0.0
 30
0.0
 40
0.4953
 41
0.4953
 75
     8
  0
VERTEX
  8
BOTTOMSOLDER
  5
5C4
 10
0.69215
 20
0.6858
 30
0.0
  0
VERTEX
  8
BOTTOMSOLDER
  5
5C5
 10
0.69215
 20
-0.6858
 30
0.0
  0
SEQEND
  8
0
  5
5C6
  0
POLYLINE
  8
BOTTOMSOLDER
  5
5C7
 66
     1
 10
0.0
 20
0.0
 30
0.0
 70
     1
 40
0.2413
 41
0.2413
 75
     8
  0
VERTEX
  8
BOTTOMSOLDER
  5
5C8
 10
-0.56515
 20
0.0
 30
0.0
 42
1.0
  0
VERTEX
  8
BOTTOMSOLDER
  5
5C9
 10
0.56515
 20
0.0
 30
0.0
 42
1.0
  0
SEQEND
  8
0
  5
5CA
  0
POLYLINE
  8
MULTILAYER
  5
5CB
 66
     1
 10
0.0
 20
0.0
 30
0.0
 40
0.1905
 41
0.1905
 75
     8
  0
VERTEX
  8
MULTILAYER
  5
5CC
 10
-0.889
 20
0.53975
 30
0.0
  0
VERTEX
  8
MULTILAYER
  5
5CD
 10
0.889
 20
0.53975
 30
0.0
  0
SEQEND
  8
0
  5
5CE
  0
POLYLINE
  8
MULTILAYER
  5
5CF
 66
     1
 10
0.0
 20
0.0
 30
0.0
 40
0.1905
 41
0.1905
 75
     8
  0
VERTEX
  8
MULTILAYER
  5
5D0
 10
-0.889
 20
-0.53975
 30
0.0
  0
VERTEX
  8
MULTILAYER
  5
5D1
 10
0.889
 20
-0.53975
 30
0.0
  0
SEQEND
  8
0
  5
5D2
  0
POLYLINE
  8
MULTILAYER
  5
5D3
 66
     1
 10
0.0
 20
0.0
 30
0.0
 40
0.4445
 41
0.4445
 75
     8
  0
VERTEX
  8
MULTILAYER
  5
5D4
 10
-0.66675
 20
0.635
 30
0.0
  0
VERTEX
  8
MULTILAYER
  5
5D5
 10
-0.66675
 20
-0.635
 30
0.0
  0
SEQEND
  8
0
  5
5D6
  0
POLYLINE
  8
MULTILAYER
  5
5D7
 66
     1
 10
0.0
 20
0.0
 30
0.0
 40
0.4445
 41
0.4445
 75
     8
  0
VERTEX
  8
MULTILAYER
  5
5D8
 10
0.66675
 20
0.635
 30
0.0
  0
VERTEX
  8
MULTILAYER
  5
5D9
 10
0.66675
 20
-0.635
 30
0.0
  0
SEQEND
  8
0
  5
5DA
  0
POLYLINE
  8
MULTILAYER
  5
5DB
 66
     1
 10
0.0
 20
0.0
 30
0.0
 70
     1
 40
0.1905
 41
0.1905
 75
     8
  0
VERTEX
  8
MULTILAYER
  5
5DC
 10
-0.53975
 20
0.0
 30
0.0
 42
1.0
  0
VERTEX
  8
MULTILAYER
  5
5DD
 10
0.53975
 20
0.0
 30
0.0
 42
1.0
  0
SEQEND
  8
0
  5
5DE
  0
ENDBLK
  8
0
  5
5DF
  0
ENDSEC
  0
SECTION
  2
ENTITIES
  0
INSERT
  8
0
  5
5E0
  2
USR_K_1
 10
63.5
 20
83.82
 30
0.0
 50
360.0
  0
ENDSEC
  0
EOF
